<svg width="86" height="35" fill="none" xmlns="http://www.w3.org/2000/svg"><path fill-rule="evenodd" clip-rule="evenodd" d="M13.975 0H9.396C4.9 0 1.084 3.424 1.084 10.071c0 3.989 1.847 6.929 5.14 8.38L.08 29.568c-.2.362 0 .643.321.643h2.852c.24 0 .401-.08.482-.28l5.581-10.918h2.009V29.93c0 .12.12.281.28.281h2.49c.242 0 .322-.12.322-.32V.401c0-.281-.16-.402-.442-.402zm-2.65 16.436H9.638c-2.65 0-5.22-1.934-5.22-6.768 0-5.036 2.409-7.09 4.859-7.09h2.048v13.858z" fill="#E8E8E8"/><path fill-rule="evenodd" clip-rule="evenodd" d="M29.07 10.016h-2.49c-.201 0-.321.16-.321.281v7.694h-4.62v-7.694c0-.201-.08-.281-.28-.281h-2.49c-.2 0-.32.12-.32.281v19.578c0 .201.08.322.28.322h2.53c.161 0 .28-.12.28-.322V20.53h4.62v9.345c0 .201.12.322.321.322h2.49c.2 0 .28-.16.28-.322V10.297a.274.274 0 0 0-.28-.281zM85.92 28.908l-.322-1.37c-.04-.12-.08-.16-.2-.16-.2 0-1.285.442-2.851.442-3.053 0-4.538-2.94-4.538-7.613 0-4.11 1.244-8.178 3.332-8.178.563 0 1.245.16 2.33 1.17.12.12.2.16.32.16.121 0 .242-.082.362-.283l1.084-1.771a.659.659 0 0 0 .121-.365c0-.16-.161-.28-.402-.401-1.646-.847-2.771-1.007-3.735-1.007-3.775 0-6.706 4.511-6.706 11.56 0 6.084 2.81 9.588 6.826 9.588 1.688 0 3.494-.805 4.217-1.33.16-.12.2-.28.16-.442h.001zM68.466 19.119l4.819-8.822c.08-.12.04-.281-.12-.281h-2.37c-.683 0-.924.24-1.164.764l-3.615 7.534c-.2.443-.402.724-.603.846v-8.863c0-.161-.08-.281-.24-.281h-2.611c-.12 0-.24.12-.24.281v19.619c0 .12.08.28.24.28h2.61c.161 0 .241-.12.241-.28V19.803c.12.08.201.2.282.363l4.578 9.426c.24.483.603.604 1.125.604h2.569c.16 0 .2-.16.121-.281l-5.623-10.797zM45.455 27.66h-.483c-.602 0-.762-.242-.762-.725V10.297c0-.201-.08-.281-.24-.281h-8.033c-.2 0-.321.12-.321.281v1.45c0 4.874-.281 11.159-2.851 15.913h-.884c-.24 0-.321.121-.321.322v5.881c0 .202.16.281.281.281h1.928c.44 0 .602-.32.602-.603v-3.344h8.594v3.666c0 .16.12.281.28.281h2.049c.24 0 .482-.2.482-.603v-5.559c0-.201-.12-.322-.321-.322zm-4.338 0h-5.822c2.048-3.505 2.85-7.453 3.132-12.287.08-1.047.12-2.136.12-2.82h2.57V27.66zM53.647 9.532c-4.337 0-6.265 5.478-6.265 11.44 0 6.083 2.731 9.708 6.746 9.708 1.968 0 3.696-.765 4.579-1.33.16-.08.2-.2.16-.36l-.32-1.371c-.041-.16-.121-.24-.322-.24-.16 0-1.326.441-2.972.441-3.092 0-4.538-2.698-4.538-6.243v-.954s1.566.188 2.49.188h5.864v-1.692c0-6.244-2.21-9.587-5.422-9.587zm-.442 8.741c-.924 0-2.369.161-2.369.161s0-.604.08-1.25c.361-3.423 1.205-5.155 2.61-5.155 1.286 0 2.089 1.772 2.29 4.875.039.644.039 1.37.039 1.37h-2.65z" fill="#FBFBFB"/></svg>