<svg width="171" height="23" fill="none" xmlns="http://www.w3.org/2000/svg"><path d="M23.496 1.2l-3.528 10.824L16.584 1.2h-4.368L8.664 11.928 5.28 1.2H.384L5.832 18h5.088l3.36-10.224L17.496 18h5.088l5.448-16.8h-4.536zm11.59 17.016c4.296 0 7.344-2.808 7.344-6.744 0-3.912-3.048-6.696-7.344-6.696-4.248 0-7.344 2.784-7.344 6.696 0 3.936 3.096 6.744 7.344 6.744zm0-3.624c-1.536 0-2.736-1.128-2.736-3.12 0-1.968 1.2-3.072 2.736-3.072 1.56 0 2.736 1.104 2.736 3.072 0 1.992-1.176 3.12-2.736 3.12zm13.8-8.04v-1.56h-4.344V18h4.56v-5.976c0-2.28 1.272-3.216 3.12-3.216.336 0 .624.024 1.032.072V4.776c-1.92 0-3.432.6-4.368 1.776zM64.688 18h5.52l-5.856-7.44 5.4-5.568h-5.4l-4.656 4.536V.192h-4.56V18h4.56v-3.192l1.344-1.368L64.688 18z" fill="#E6E8F4"/><path d="M81.237 4.992v1.584c-.888-1.224-2.28-1.8-4.08-1.8-3.456 0-6.384 2.448-6.384 6.264 0 3.84 2.928 6.288 6.384 6.288 1.656 0 2.976-.504 3.864-1.536v.432c0 2.04-1.032 3.144-3.48 3.144-1.536 0-3.312-.528-4.392-1.392l-1.656 3.192c1.584 1.128 3.96 1.704 6.456 1.704 4.848 0 7.632-2.328 7.632-7.248V4.992h-4.344zm-3 8.712c-1.632 0-2.856-1.08-2.856-2.664s1.224-2.64 2.856-2.64 2.832 1.056 2.832 2.64-1.2 2.664-2.832 2.664zm14.618-7.152v-1.56H88.51V18h4.56v-5.976c0-2.28 1.272-3.216 3.12-3.216.336 0 .624.024 1.032.072V4.776c-1.92 0-3.432.6-4.368 1.776zm11.7-1.776c-2.04 0-4.248.528-5.736 1.512l1.536 3.096c.888-.696 2.28-1.128 3.528-1.128 1.8 0 2.688.744 2.76 2.064h-2.592c-4.032 0-5.784 1.488-5.784 3.888 0 2.256 1.728 4.008 4.848 4.008 1.896 0 3.192-.648 3.84-1.896V18h4.248v-7.224c0-4.128-2.424-6-6.648-6zm-.168 10.56c-1.08 0-1.704-.552-1.704-1.32 0-.792.528-1.32 1.992-1.32h1.968v1.128c-.36 1.032-1.248 1.512-2.256 1.512zm26.638-10.56c-1.872 0-3.48.744-4.512 2.04-.912-1.392-2.424-2.04-4.2-2.04-1.536 0-2.904.528-3.888 1.584V4.992h-4.344V18h4.56v-6.456c0-2.016.96-2.904 2.304-2.904 1.224 0 1.968.792 1.968 2.664V18h4.56v-6.456c0-2.016.96-2.904 2.28-2.904 1.2 0 1.968.792 1.968 2.664V18h4.56v-7.44c0-4.032-2.232-5.784-5.256-5.784zm10.054 13.44c1.56 0 2.736-1.128 2.736-2.712 0-1.632-1.176-2.688-2.736-2.688-1.536 0-2.736 1.056-2.736 2.688 0 1.584 1.2 2.712 2.736 2.712zM150.3 6.552v-1.56h-4.344V18h4.56v-5.976c0-2.28 1.272-3.216 3.12-3.216.336 0 .624.024 1.032.072V4.776c-1.92 0-3.432.6-4.368 1.776zm15.417-1.56v6.264c0 2.184-1.104 3.072-2.448 3.072-1.368 0-2.16-.792-2.16-2.808V4.992h-4.56v7.272c0 4.128 2.328 5.952 5.52 5.952 1.488 0 2.88-.528 3.864-1.608V18h4.344V4.992h-4.56z" fill="#2CFFB3"/></svg>