<svg width="1685" height="1021" fill="none" xmlns="http://www.w3.org/2000/svg"><g opacity=".2" clip-path="url(#a)" fill="#161A2C"><path d="M102.019 689.685c-.715-.816-1.838-6.534-2.45-12.66-.613-6.228-1.635-11.639-2.145-12.15-.613-.51-3.268-1.736-5.923-2.757-4.085-1.429-5.617-2.858-8.578-7.453-3.37-5.309-3.472-5.82-2.35-9.597.614-2.144 1.737-4.186 2.452-4.391 2.042-.816 9.497 2.349 14.603 6.126 3.166 2.451 5.821 3.676 8.068 3.676 2.757 0 3.982.817 6.944 4.39 3.37 4.084 3.676 5.003 3.676 11.027-.102 9.802-1.327 13.682-6.229 19.195-5.31 5.922-6.536 6.534-8.068 4.594zM92.011 605.657c-1.123-.714-1.123-1.633-.102-5.003 1.838-6.432 1.021-7.351-6.535-7.351h-6.536l-.715-5.207c-.613-4.595-1.021-5.309-4.187-6.841-1.94-.919-3.574-2.246-3.574-3.063 0-1.735 7.965-13.477 9.19-13.477.511 0 1.226.919 1.532 1.94 1.022 3.165 14.706 6.33 17.463 4.084.92-.817 5.515-1.634 10.723-1.94 8.374-.51 8.987-.408 9.497 1.532 1.123 4.084.511 7.045-2.042 10.516-3.268 4.084-5.106 12.048-3.37 14.09.919 1.123.715 1.429-.919 1.429-1.226 0-3.779 2.042-6.332 5.105-3.88 4.595-4.697 5.105-8.476 5.105-2.349-.102-4.902-.408-5.617-.919zM294.62 598.714l-7.047-4.696-3.778 2.246c-5.617 3.165-11.029 2.757-17.259-1.225-4.289-2.757-5.106-3.676-4.799-5.82.306-1.838-.817-3.778-5.004-8.066-5.208-5.411-5.515-5.615-7.966-4.288-2.655 1.327-7.965.919-10.824-.817-2.145-1.429 3.982-6.534 13.173-11.231 4.187-2.246 9.089-4.696 10.723-5.615 2.144-1.123 5.719-1.634 11.54-1.634 10.518 0 15.216 2.042 19.913 8.883 6.945 10.006 9.191 11.843 17.974 14.498 7.761 2.246 8.374 2.348 10.11.715 2.348-2.042 7.352-2.247 7.352-.307 0 .817-.715 2.042-1.532 2.757-1.021.817-1.531 3.063-1.531 6.637v5.411l-5.719-.511c-4.8-.408-6.332-.102-9.497 1.94-9.804 6.535-8.068 6.433-15.829 1.123z"/><path d="M120.095 594.528c-4.8-1.633-5.004-1.838-4.494-4.901.307-1.837 1.941-5.207 3.677-7.555 2.859-3.982 3.063-4.799 2.553-10.21-.613-5.003-.409-5.922 1.123-6.534 1.226-.511 2.757.102 4.596 1.837 2.553 2.553 3.063 2.655 12.356 2.042 5.311-.306 10.723-.714 12.153-.918 2.042-.307 2.961.306 4.289 2.552 1.021 1.736 2.451 3.063 3.268 3.063 2.246 0 4.697 4.084 4.697 7.964 0 2.552-.817 4.186-3.166 6.432-3.574 3.369-5.82 3.574-12.356 1.327l-4.698-1.633-6.638 4.186c-7.148 4.594-9.599 4.901-17.36 2.348zM238.045 602.084c-7.762-9.904-12.97-14.907-15.216-14.907-1.124 0-2.656-.715-3.37-1.531-1.022-1.328-.919-1.94.612-3.676 1.532-1.736 1.634-2.45.613-4.084-1.838-2.961-.715-3.982 4.289-3.982 2.962 0 5.31.715 7.761 2.451 4.494 3.369 13.582 5.513 15.829 3.675 1.328-1.123 1.94-1.021 3.779.613 5.106 4.39 6.842 6.943 6.229 9.699-.408 2.348.102 3.063 3.676 5.003 4.698 2.655 5.311 4.084 1.941 4.084-1.226 0-3.268.919-4.494 2.144-1.838 1.634-2.655 1.838-4.289 1.021-3.88-2.144-7.148-1.429-8.884 1.838-.817 1.634-1.941 3.267-2.451 3.573-.511.307-3.268-2.348-6.025-5.921zM114.478 652.623c-2.553-3.165-4.187-4.186-7.557-4.696-2.655-.511-6.434-2.247-9.497-4.595-2.758-2.042-7.047-4.288-9.395-5.003-3.575-1.021-4.392-1.735-4.392-3.573 0-1.328-.919-5.003-2.042-8.27-2.655-7.76-2.655-8.066 1.532-10.006 1.94-.919 4.289-3.165 5.106-4.901 1.634-3.165 1.94-3.267 6.944-2.757 4.902.511 5.617 1.021 10.723 6.535 7.557 8.372 8.272 9.495 9.497 16.029.919 5.003 1.736 6.535 6.638 11.333 3.064 3.064 5.515 6.024 5.515 6.535 0 .51-1.226 1.736-2.758 2.757-7.761 5.002-6.842 4.9-10.314.612zM148.791 665.692c-2.553-1.327-4.085-3.063-4.902-5.513-.613-1.94-1.736-3.982-2.349-4.391-.715-.408-2.042-1.94-2.961-3.471-1.022-1.532-3.166-2.961-4.902-3.369-1.736-.409-4.391-2.349-6.127-4.493l-3.064-3.675 3.574-.307c3.064-.306 4.289-1.225 7.864-6.126 2.246-3.267 4.493-6.228 5.003-6.738.409-.511 1.941.408 3.268 1.94l2.451 2.858 4.494-1.837c2.451-.919 5.004-1.94 5.616-2.247 1.021-.408 11.642 12.354 11.642 13.886 0 .306-2.553 2.45-5.617 4.697l-5.616 4.084.204 7.555c.306 7.351.204 7.657-2.349 8.27-1.634.511-3.88.102-6.229-1.123zM177.18 583.706c-.306-1.226-.612-3.676-.612-5.412 0-3.063.306-3.267 4.493-3.982 5.821-.816 6.74-.204 6.74 4.697 0 4.492-.204 4.595-5.821 5.922-3.88.817-4.289.715-4.8-1.225z"/><path d="M171.053 610.966c-.204-.306.204-1.94.919-3.675 1.226-2.961 1.021-3.778-2.246-10.925-2.962-6.534-3.473-8.372-2.86-12.456.715-5.616-1.838-12.048-4.697-12.048-.919 0-2.758-1.634-3.983-3.573l-2.145-3.574 3.37-6.126c2.758-5.003 3.983-6.33 6.945-7.147 5.821-1.633 7.863-1.225 10.518 2.144 2.247 2.859 3.574 3.37 12.459 5.105 12.765 2.451 19.811 7.453 12.765 9.087-1.838.408-2.859 2.042-4.698 7.555-2.144 6.126-2.246 7.556-1.225 11.027.613 2.144 2.451 5.105 4.085 6.433 3.37 2.756 3.472 3.675.919 9.188-1.838 4.084-2.042 4.187-9.395 5.514-4.187.715-10.417 1.94-13.889 2.654-3.472.715-6.535 1.022-6.842.817zm12.663-23.687l6.638-1.838.306-5.513c.409-8.066-.714-9.087-9.497-8.27l-7.148.715.306 7.147c.306 7.555.715 9.699 1.94 9.699.511 0 3.779-.919 7.455-1.94zM119.788 635.981c-.51-.715-1.429-4.084-2.144-7.351-1.021-5.003-2.145-6.841-7.455-12.559-3.574-3.879-5.923-7.045-5.412-7.759 2.655-4.799 6.74-8.781 8.169-8.168.919.306 2.145-.102 2.962-1.225 1.225-1.634 1.94-1.634 8.476-.409l7.148 1.327.613 5.003c.511 3.37 1.736 6.024 3.676 8.27 4.494 5.105 4.187 10.823-.919 17.97-3.676 5.411-3.982 5.616-9.088 5.922-3.473.204-5.515-.204-6.026-1.021zM196.073 647.11c-3.166-3.165-3.268-3.165-7.966-1.94-3.37.919-5.004 1.021-5.208.204-.817-2.348-3.574-4.084-6.638-4.084-4.187-.102-4.697-.408-10.314-7.658-5.106-6.636-5.412-7.249-3.166-8.065.817-.307 2.656-2.859 4.085-5.718 1.634-3.267 3.37-5.309 4.902-5.615 5.412-1.328 23.896-4.595 25.837-4.595 2.144 0 10.416 9.495 16.135 18.582l2.961 4.901-7.557 7.964c-4.187 4.492-8.067 8.27-8.782 8.678-.613.307-2.553-.919-4.289-2.654zM100.692 565.532c-3.064-1.736-2.247-12.967 1.736-25.219 3.268-9.801 3.982-11.129 9.599-16.744 6.025-6.024 6.127-6.024 9.599-4.799 2.86 1.021 4.698 3.063 9.396 10.823l5.923 9.597h15.114l4.084 5.207c2.247 2.859 4.085 5.514 4.085 6.024 0 1.123-6.025 12.354-7.557 13.988-.817.816-5.208 1.633-11.539 1.94l-10.315.714-2.553-2.961-2.553-2.961-4.902 2.247c-5.412 2.348-17.462 3.675-20.117 2.144z"/><path d="M165.743 685.908c-7.557-8.168-9.293-10.415-10.008-13.273-.511-2.349-.306-2.859 2.042-3.37 2.553-.714 2.553-.816 2.349-8.678-.204-4.39-.102-8.168.204-8.372 7.353-6.024 10.825-7.862 14.4-7.862 3.165 0 4.187.408 5.106 2.553 1.327 2.858 1.429 2.961 7.557 1.327 4.289-1.021 4.901-.919 6.842 1.123l2.246 2.246-2.859 2.042-2.859 2.144.714 12.048.715 12.048-10.314 5.207c-5.719 2.859-10.723 5.207-11.233 5.207-.409 0-2.655-1.94-4.902-4.39zM203.017 560.223c-1.94-1.736-5.412-2.859-12.357-4.084-8.884-1.634-9.803-2.042-12.458-5.412-2.758-3.471-3.064-3.573-7.455-2.858-2.553.306-5.208.816-5.821 1.123-.715.204-3.37-2.349-6.025-5.718l-4.8-6.126h-6.842c-3.881-.102-7.455-.408-8.068-.817-1.531-1.021-10.62-15.723-10.62-17.152 0-.715 1.429-1.838 3.063-2.451 3.779-1.633 4.596-3.063 5.617-9.699 1.226-8.679 3.779-11.027 6.842-6.433 1.124 1.736 3.881 2.757 11.642 4.391 5.515 1.225 11.54 2.858 13.378 3.573 2.859 1.225 3.88 1.123 10.11-1.531l6.842-2.961 5.923 6.33c5.106 5.513 6.229 6.228 7.965 5.309 3.064-1.633 4.8-1.327 10.008 2.042 3.575 2.246 6.025 3.063 9.6 3.063 4.187 0 4.902.306 5.412 2.451.919 3.675-.919 7.351-6.331 12.66-6.025 5.82-9.6 14.294-7.455 17.663 1.123 1.838.919 2.553-1.43 5.514-1.43 1.939-2.961 3.573-3.37 3.471-.408 0-1.94-1.021-3.37-2.348zM145.114 625.873c-.919-1.634-2.042-2.961-2.451-2.961-.51 0-.816-1.634-.816-3.574 0-2.552-.92-4.594-3.166-7.147-2.758-3.165-3.268-4.492-3.37-9.495l-.102-5.717 4.595-2.859 4.596-2.859 6.025 1.736c5.923 1.633 6.127 1.633 9.803-.511l3.881-2.246 2.859 6.432c3.268 7.351 3.268 7.556 1.226 12.661-6.025 14.6-5.719 14.191-15.523 17.561l-5.821 2.042-1.736-3.063zM208.736 616.582c-7.557-9.495-7.251-8.27-4.187-15.111l2.655-6.126-3.676-3.369c-5.311-4.799-5.923-7.147-3.881-14.703.919-3.573 2.043-6.432 2.349-6.432.306 0 1.94 1.634 3.574 3.676 2.757 3.471 3.166 3.573 7.251 2.96 5.208-.714 6.74.613 3.983 3.676-1.737 1.838-1.737 2.246-.307 4.799.817 1.531 3.064 3.267 4.902 3.88 4.595 1.429 19.914 18.684 18.178 20.42-1.022 1.021-24.51 11.639-25.633 11.537-.613 0-2.961-2.348-5.208-5.207zM117.337 707.655c-2.553-1.634-5.003-2.961-5.616-3.063-.817 0-4.8-5.82-6.434-9.291-.102-.408 2.451-3.676 5.821-7.351 6.638-7.351 8.272-11.946 8.272-23.075v-5.922l5.719-3.88c6.433-4.288 10.008-4.288 11.641 0 .511 1.43 1.43 2.553 2.043 2.553.613 0 1.94 2.042 3.064 4.492 1.429 3.37 2.859 5.003 5.412 6.024 3.676 1.532 6.842 5.105 6.842 7.76 0 .919 3.268 5.003 7.149 9.291 6.433 6.943 7.148 8.066 7.148 11.946 0 5.309-1.634 5.717-6.944 1.633-3.268-2.45-3.983-2.654-11.131-2.042-4.187.307-7.864.817-8.17 1.021-.306.307-.817 2.144-1.226 3.982-.612 2.961-1.429 3.676-6.637 5.718-9.089 3.573-11.642 3.675-16.953.204z"/><path d="M207.817 572.883c-2.247-2.45-1.532-5.207 2.961-10.72 4.596-5.82 4.8-6.331 3.472-8.883-1.94-3.574.715-9.802 6.843-15.928 6.842-6.738 9.088-6.84 14.501-1.021l4.085 4.289 2.859-1.94c2.553-1.736 2.859-1.736 4.085-.102 1.225 1.735 3.472 14.6 3.472 20.42 0 2.654-.511 3.573-2.349 3.981-1.225.307-4.697 2.757-7.761 5.31-4.289 3.675-6.025 4.594-7.659 3.982-3.676-1.226-16.033-.409-17.667 1.123-2.042 2.042-4.8 1.837-6.842-.511zM25.326 809.959a157.909 157.909 0 0 0-1.736-3.573c-.204-.409.715-.715 2.043-.715 1.327-.102 3.063-.511 3.88-1.021 1.226-.817 1.328-1.327.307-3.063-2.145-3.369-1.532-4.697 2.655-6.637 3.88-1.735 6.842-5.819 5.718-7.759-.408-.511-2.144-.919-4.084-.919-3.88 0-8.272-3.778-9.293-7.964-.92-3.573.204-3.88 3.676-.919 2.349 1.94 4.391 2.757 7.25 2.757 3.677 0 4.188.306 5.617 3.574 2.043 4.9 3.064 16.029 1.634 18.48-1.021 1.735-1.225 1.633-2.247-1.43-.714-1.838-1.736-3.267-2.45-3.267-.613 0-3.166 3.369-5.72 7.657-2.45 4.187-4.799 7.658-5.207 7.658-.307 0-1.226-1.327-2.043-2.859zM159.718 852.024c-6.74-.714-13.072-1.123-13.991-.816-1.021.306-2.451.102-3.37-.409-1.225-.714-.715-1.633 2.962-5.309l4.595-4.39-2.042-3.982c-2.247-4.493-2.553-4.186 6.433-5.922 3.268-.715 6.128-1.531 6.332-1.94.204-.306 0-2.961-.511-5.718-.919-4.696-.715-5.207 2.655-10.21 1.941-2.858 3.575-5.513 3.575-5.921 0-.409-2.349-.715-5.209-.715h-5.31l.715-8.168c.408-5.207.204-9.699-.613-12.66-.612-2.553-.919-5.003-.51-5.412.51-.408 4.391-.714 8.68-.612 6.74.102 8.068.51 9.599 2.348 2.247 2.757 2.349 4.697.307 6.739-1.634 1.633-1.838 4.798-.613 8.065.511 1.226.102 4.085-1.021 7.454-2.247 6.534-1.838 7.555 4.595 12.354 2.553 1.94 4.902 4.186 5.106 5.105.307.919.817 5.717 1.124 10.822l.714 9.292-4.289 1.735c-4.289 1.634-4.391 1.634-3.676 5.718.715 4.799 2.247 4.594-16.237 2.552zM78.327 892.048c-.919-1.838-1.328-3.88-1.021-4.391.408-.612 5.719-4.288 11.948-8.27 11.029-7.147 11.233-7.249 13.072-5.309 1.021 1.123 2.757 2.042 3.778 2.042 3.574 0 2.451 3.88-1.532 5.82-2.757 1.327-3.88 2.654-5.106 6.432l-1.634 4.799-7.352.714c-3.983.409-8.068.919-8.987 1.123-1.021.307-2.145-.714-3.166-2.96z"/><path d="M89.356 938.095c-.306-1.225-.612-5.514-.612-9.394 0-6.738-.205-7.351-5.209-14.906-4.595-7.045-5.004-8.27-4.39-11.64.816-4.594 3.063-5.615 12.662-5.615 7.66 0 7.761-.102 10.212-6.637.919-2.246 2.553-4.594 3.779-5.207 4.493-2.144 5.514-3.777 5.208-7.453-.204-3.165-.715-3.778-3.064-3.982-2.757-.408-4.187-1.94-8.782-9.597l-2.247-3.676 8.783-4.799 8.782-4.9 5.515 5.513c6.025 5.922 6.433 6.739 3.778 7.76-5.004 1.735-5.412 2.961-4.698 14.6.715 12.252.817 11.741-6.944 21.951l-3.88 5.208-.307 16.233-.306 16.336-5.106 1.124c-2.757.714-6.74 1.225-8.783 1.327-3.063.102-3.88-.306-4.39-2.246z"/><path d="M73.834 883.778c-.409-1.021.204-2.655 1.634-4.084 2.042-2.144 2.246-3.166 1.634-8.168l-.715-5.616h7.557c9.19 0 13.684.817 14.399 2.553.408 1.123-3.779 4.084-21.548 15.621-2.042 1.225-2.349 1.225-2.961-.306zM51.571 857.436c-1.021-3.472-2.655-7.351-3.88-8.577l-2.043-2.246 5.106-2.552 5.106-2.655 5.515 3.063c2.961 1.634 8.476 4.594 12.254 6.636l6.843 3.574-2.043 3.471c-2.042 3.37-2.042 3.472-7.965 2.859-4.085-.306-7.557 0-10.927 1.123-2.655.919-5.106 1.736-5.515 1.736-.408 0-1.43-2.859-2.45-6.432zM123.158 855.394c-5.004-4.595-6.229-6.535-7.965-11.946-1.124-3.573-3.574-9.904-5.515-14.09-1.94-4.186-3.88-9.495-4.187-11.843-.715-4.391-6.638-16.03-9.803-19.195-1.022-1.123-3.268-1.838-5.31-1.838-2.86 0-3.575-.408-3.881-2.348-.204-1.838-.817-2.246-3.472-1.94-1.839.102-3.677-.409-4.29-1.225-1.02-1.124-.306-1.532 4.085-2.145 2.962-.408 6.23-1.429 7.149-2.246 1.532-1.429 1.94-1.123 4.391 2.757 1.532 2.348 3.268 5.718 3.983 7.555 2.349 6.331 3.166 7.045 8.986 7.454 5.515.51 5.617.408 6.945-2.757 1.327-3.165 1.429-3.267 6.127-2.553l4.902.613 3.778-6.126c2.043-3.471 3.472-6.739 3.064-7.249-.306-.613-2.451-1.021-4.698-1.021-3.37 0-4.085-.306-3.778-1.838.306-1.429 1.634-1.838 7.965-2.042 5.923-.306 8.17-.817 9.804-2.348 2.349-2.246 3.472-1.736 3.472 1.531 0 3.268 1.94 4.799 4.391 3.472 3.472-1.838 4.289.51 4.289 12.762v11.435l3.881.307c2.042.204 3.778.714 3.778 1.225 0 .51-1.123 2.552-2.553 4.594-1.634 2.553-2.246 4.595-1.94 6.433 1.328 6.738 1.43 6.738-5.719 8.066-3.574.817-7.046 1.838-7.557 2.348-.612.511-.204 2.553.919 5.105l1.941 4.186-4.902 4.697c-4.902 4.798-4.902 4.798-2.757 6.534 2.859 2.349 2.757 3.063-1.124 5.718-6.331 4.186-7.863 3.88-14.399-2.042zM41.461 843.346c-2.349-1.838-14.5-21.135-13.786-21.849.204-.205 2.655-1.43 5.412-2.553l5.004-2.144 3.166 3.778 3.268 3.777 3.37-1.735c4.595-2.247 5.412-2.144 7.353 1.225 1.634 2.654 1.634 2.859 0 3.88s-1.634 1.429 0 5.717l1.634 4.697-3.064 1.225c-1.634.715-4.596 2.349-6.434 3.676-3.37 2.246-3.472 2.246-5.923.306z"/><path d="M42.278 817.413c-1.532-1.94-3.268-3.574-3.982-3.574-.613 0-3.779 1.327-6.945 2.859-3.268 1.531-6.23 2.552-6.638 2.144-.408-.408-2.45-1.225-4.493-1.838-4.391-1.429-5.004-3.471-5.004-17.663 0-7.249-.51-10.414-3.166-17.868-4.084-11.639-5.82-17.867-6.637-23.993-.613-4.39-.409-4.901 1.327-4.901 1.021 0 2.757 1.327 3.676 3.063 2.35 3.88 3.881 3.778 9.498-.204 4.187-3.063 4.8-3.165 11.029-2.553 7.761.715 8.578.103 8.986-7.044.307-5.514 0-5.31 8.68-3.982 2.962.51 3.269.816 2.758 3.369-.817 3.88 1.838 6.534 5.106 5.309 1.94-.715 2.86-.408 4.391 1.327 4.698 5.412 4.698 5.412 2.86 10.925l-1.736 5.105 3.778 5.616c2.962 4.39 3.676 6.432 3.37 9.393-.306 3.777-.408 3.88-4.595 3.88-3.88 0-4.596.408-6.944 3.777-2.962 4.391-3.064 5.514-.92 11.027 1.634 3.88 1.532 4.084-.51 5.82-1.124 1.021-2.758 3.675-3.472 5.922-.92 2.552-2.553 4.696-4.596 5.921l-3.063 1.838-2.758-3.675zm-8.68-8.475l4.391-6.84 1.43 3.267c1.838 4.492 3.778 4.186 5.82-1.021 1.328-3.676 1.43-5.718.716-12.048-1.634-12.558-3.575-15.213-11.132-15.213-1.43 0-3.88-1.225-5.514-2.757-2.451-2.348-3.166-2.552-5.413-1.531-3.472 1.634-3.267 5.717.613 10.925 2.145 2.756 4.085 4.186 6.23 4.594 4.901.715 4.493 2.553-1.328 4.901-5.31 2.246-5.515 2.654-3.574 7.453.613 1.225 0 1.736-2.349 2.246-1.94.409-3.166 1.226-3.166 2.247 0 2.858 5.208 10.72 7.149 10.72 1.123 0 3.472-2.552 6.127-6.943zM64.234 877.243c-6.74-1.736-7.76-2.757-9.599-8.883-.51-1.939 0-2.348 4.698-3.471 2.961-.613 7.454-1.021 10.007-.919l4.596.408.306 5.922c.307 5.412-.817 9.087-2.757 8.781-.306-.102-3.574-.919-7.25-1.838z"/><path d="M81.901 862.949c-2.859-.306-2.859-.817-.306-4.696 2.757-4.289 2.655-5.003-1.736-7.045-2.145-1.021-7.557-3.88-12.152-6.433-7.66-4.39-8.272-5.003-9.191-9.189-.92-3.879-.817-4.39.714-4.39 3.268 0 3.064-1.94-.51-7.351-2.043-2.961-3.676-6.228-3.676-7.249 0-2.553 1.838-6.024 4.289-7.964 2.042-1.634 2.042-1.736.306-7.351-1.736-5.412-1.736-5.82-.102-8.373 1.225-1.837 2.45-2.552 4.493-2.45 1.532.102 3.88-.306 5.208-1.021 2.145-1.225 2.758-1.021 6.638 2.859 3.064 2.961 4.902 3.982 6.127 3.573 1.226-.51 1.94-.102 2.35 1.43.408 1.838 1.327 2.246 4.799 2.246 3.983 0 4.391.204 8.17 6.228 2.655 3.982 4.493 8.474 5.31 12.456.613 3.472 2.859 9.598 4.8 13.58 4.697 9.495 6.229 14.804 4.493 16.336-.613.612-4.391 2.858-8.374 5.003-9.19 4.9-9.906 5.513-9.293 8.065.51 1.94.102 2.145-4.8 2.145-2.961 0-6.331-.205-7.557-.409zM106.615 801.791c-3.779-.51-5.617-1.94-5.617-4.492 0-2.655-6.944-15.111-8.782-15.826-.817-.306-2.451.613-3.575 2.144-2.042 2.553-2.655 2.655-8.884 2.451l-6.842-.307-.511-4.084c-.306-2.246-2.145-6.33-3.983-9.086l-3.37-5.003 1.736-5.31 1.838-5.411-3.778-4.696c-3.983-4.799-4.493-5.105-8.578-4.799-1.838.204-2.349-.204-2.043-1.634.307-1.531 1.328-1.838 5.106-1.838 2.656 0 5.413-.612 6.128-1.429 1.43-1.429.102-2.859-6.842-7.964-2.962-2.144-2.962-2.246-1.124-4.288 1.43-1.634 3.166-2.144 6.434-2.144 3.983 0 5.106.613 10.723 5.718l6.229 5.819 3.166-3.573c1.736-1.94 4.8-5.82 6.74-8.475 2.655-3.675 4.595-5.309 7.659-6.126 6.536-1.939 8.476-3.369 9.701-7.453 1.941-5.82 2.553-6.024 8.374-2.348 4.494 2.757 5.923 3.165 8.987 2.654 7.659-1.531 7.455-1.633 9.089 5.412 1.736 7.147 1.838 6.943-5.515 12.048-2.042 1.429-2.042 1.429.307 5.819 2.348 4.391 2.348 4.493.612 8.168-1.736 3.574-2.042 3.778-6.74 3.778-5.106 0-11.029 2.246-11.029 4.084 0 .613.715 2.552 1.634 4.186 1.328 2.655 1.43 3.982.511 7.658-1.532 5.819.204 11.945 3.982 14.702 2.145 1.531 2.656 2.552 2.247 5.003-.408 3.063-.306 3.165 3.881 3.165h4.187l-2.349 4.186c-2.349 4.186-2.349 4.186-7.149 3.574-4.595-.511-5.003-.409-6.433 2.45-1.838 3.471-2.247 3.676-6.127 3.267z"/><path d="M177.18 781.78c-1.531-3.574-3.37-4.289-13.377-5.003-3.37-.307-13.174 1.429-14.502 2.552-1.327 1.123-1.634.613-2.757-4.594-.817-3.676-2.042-3.472-5.821.816-3.064 3.37-3.472 3.574-10.11 3.574-9.293 0-11.744-1.123-13.276-5.718-.919-2.858-.919-4.696 0-8.066 1.022-3.675.919-4.9-.51-7.657-2.349-4.595-1.124-5.411 8.476-5.616 4.187 0 4.493-.306 7.148-5.002l2.655-4.901-2.144-3.88-2.247-3.88 4.187-3.471 4.289-3.574-1.327-6.024c-.715-3.369-1.532-6.942-1.736-8.066-.409-1.531.408-2.552 3.268-4.084 3.676-2.042 4.799-3.267 5.923-6.942.408-1.43 1.736-1.736 6.637-1.736 3.37 0 6.434.511 6.843 1.123.306.511 2.042 1.94 3.778 2.961 1.634 1.021 4.289 4.084 5.719 6.739 2.553 4.696 2.961 5.002 10.11 7.044 4.085 1.124 7.863 2.757 8.476 3.574 1.123 1.94 1.225 8.781 0 12.865-1.226 4.186.102 6.126 4.595 6.942 2.656.511 4.187 1.634 5.719 4.289 1.226 2.042 3.574 4.288 5.208 5.002 2.145.817 3.472 2.451 4.392 5.105.714 2.145 1.123 4.289.817 4.697-.205.408-4.29 2.859-8.987 5.411-9.804 5.31-10.519 6.024-11.029 10.619-.204 2.654-1.124 3.777-4.596 5.819l-4.289 2.553-1.532-3.471zM366.513 561.652c-1.43-.51-3.88-.919-5.412-.919-1.838-.102-3.779-1.123-5.004-2.756-1.838-2.247-2.553-2.553-6.025-1.94l-3.983.612v-3.982c0-3.165-.409-4.186-1.94-4.594-1.124-.306-2.962-2.451-4.085-4.697-2.145-4.186-4.187-5.105-7.149-3.267-.715.408-2.553.511-4.085.102-2.144-.51-2.757-1.429-3.165-4.696-.409-3.268-.919-3.982-2.553-3.778-1.124.204-4.085.612-6.638.919-4.391.612-4.8.408-7.353-2.961-1.736-2.246-5.515-4.799-10.416-7.147-5.923-2.859-7.864-4.288-8.374-6.33-.409-1.532-1.532-2.859-3.064-3.165-2.859-.715-15.727-14.09-15.727-16.336 0-.817 1.124-4.289 2.553-7.556 1.43-3.369 2.553-6.738 2.553-7.657 0-.817 1.839-2.451 3.983-3.574 3.574-1.736 4.187-2.654 5.106-7.249.613-2.961 2.247-6.636 3.677-8.27 2.348-2.859 2.451-3.063 1.021-7.76-2.553-8.372-2.043-11.026 3.472-18.378 2.144-2.756 3.166-3.267 6.842-3.267 3.37 0 4.391.409 4.8 1.94.408 1.838 6.229 6.228 8.067 6.228 1.124 0 7.966-6.228 9.089-8.27.613-1.225.511-3.369-.306-6.33-1.43-5.411-.204-12.763 2.451-14.396 2.757-1.736 3.778.102 4.799 9.393l.919 8.474 6.536 6.841c8.578 8.985 10.212 9.189 12.97 1.531 5.106-14.191 6.944-15.519 22.058-15.519 13.173.102 13.48.204 16.952 8.577 4.187 9.699 5.208 10.618 9.089 8.372l2.961-1.838 7.251 13.784 7.25 13.783 6.332-.613c4.595-.408 6.842-.102 8.272.919 1.736 1.328 1.634 1.736-2.145 9.496l-4.085 8.168 2.247 7.351c1.94 6.126 2.042 7.657 1.021 9.189-1.225 1.531-1.838 1.633-6.025.51-2.553-.714-6.536-1.225-8.884-1.225-3.473 0-4.8-.715-9.089-4.901-2.757-2.654-7.966-6.432-11.642-8.372-6.229-3.267-6.842-3.369-10.723-2.246-2.349.715-4.187 1.94-4.187 2.655 0 .714 1.43 4.39 3.064 7.963 2.655 5.718 2.961 7.045 2.042 9.598-.715 1.633-.919 5.003-.612 7.657.714 5.207.919 5.003-5.617 6.33-2.145.511-2.962 1.736-5.004 8.373l-2.451 7.759 3.064 2.451c4.085 3.369 5.719 3.165 9.497-1.532 2.757-3.471 3.881-4.084 7.148-4.084 3.064 0 4.29.511 5.515 2.348 1.532 2.349 1.328 2.655-7.046 11.027-7.455 7.249-8.579 8.985-8.17 11.231 1.123 5.718-4.085 8.372-11.642 6.024z"/><path d="M528.171 493.347c-18.688-8.27-25.326-11.741-38.5-20.522-12.05-7.862-16.543-10.312-18.279-9.904-2.043.511-30.943.613-46.976.205-3.779-.102-7.251-.613-7.761-1.123-.511-.511-3.779-6.433-7.251-13.069-5.208-9.7-6.127-12.252-5.004-13.069.817-.511 2.962-1.838 4.902-3.063l3.37-2.144-.613-7.045-.715-6.943 4.392-1.94c6.025-2.552 15.113-12.558 15.113-16.54 0-1.531.409-3.165.92-3.471 1.633-1.021 6.433 3.777 8.373 8.372 2.451 5.819 2.451 9.699 0 11.946-1.94 1.735-2.246 1.735-7.25 0-5.004-1.838-5.106-1.838-9.702.408-2.553 1.225-4.901 2.961-5.31 3.88-.613 1.735 1.43 17.663 2.553 19.501.817 1.225 11.131 5.411 13.48 5.411.919 0 4.085-2.552 7.149-5.615l5.514-5.616h28.9c16.033 0 29.003.408 29.309.919.409.51-1.94 2.348-5.004 4.084-3.166 1.736-5.923 3.88-6.331 4.799-.613 1.633 6.025 9.189 9.395 10.516 1.327.51 4.085.102 7.557-1.123 6.944-2.348 8.986-2.348 15.42.204 4.187 1.634 6.434 1.838 12.867 1.327l7.761-.612-.714 4.696c-.715 4.493-.613 4.799 2.144 5.922 4.902 2.042 9.906 1.43 14.706-1.735l4.391-2.961-.613-6.841c-.511-5.411-.204-7.249 1.021-8.474 1.634-1.736 1.43-1.736 17.361 7.351 2.451 1.429 5.617 4.492 7.557 7.555l3.268 5.105-2.145 2.961c-2.757 3.676-2.757 3.267.511 10.925 1.429 3.573 2.349 6.738 1.94 7.147-.408.408-2.144.102-3.983-.613-3.165-1.225-3.37-1.123-7.046 2.961-2.655 2.961-5.106 4.493-8.068 5.207-2.348.511-6.127 2.553-8.476 4.39-2.553 2.145-6.535 4.084-10.416 5.105-3.472.919-6.434 1.532-6.638 1.532-.204 0-10.62-4.594-23.079-10.006zM543.081 401.355c-4.392-3.369-8.068-7.147-8.374-8.372-.307-1.327-1.532-7.453-2.655-13.682-1.941-9.903-1.941-11.843-.817-15.315 1.123-3.267 2.144-4.288 5.31-5.309 2.349-.817 7.557-4.798 13.582-10.516 8.578-8.066 10.11-9.087 12.561-8.576 2.451.51 3.268-.103 7.557-5.616 2.553-3.369 6.842-7.555 9.497-9.393 2.655-1.838 9.191-6.535 14.501-10.516 5.311-4.084 10.927-8.066 12.357-9.087 3.166-2.042 23.794-5.31 43.197-6.841 8.068-.613 17.463-2.042 21.65-3.165 4.085-1.225 8.068-1.838 8.987-1.532 2.859 1.123 1.838 6.433-1.94 10.21-3.881 3.88-3.881 3.88-26.654 6.331-16.544 1.735-21.241 3.471-34.926 12.558-3.165 2.042-8.578 4.901-11.846 6.228-3.268 1.429-9.089 5.003-12.765 7.964-3.676 3.063-10.416 8.27-14.91 11.639-8.578 6.33-19.301 17.766-23.692 25.219-2.553 4.288-2.553 4.799-2.042 16.846.306 6.841.715 13.273.919 14.396.613 3.472-1.634 2.655-9.497-3.471zM679.515 189.498c-1.941-5.003 1.531-8.781 6.127-6.739 2.961 1.429 3.063 2.246.306 5.615-2.349 3.063-5.514 3.574-6.433 1.124zM696.467 189.498c-2.758-1.226-3.166-1.838-2.247-3.37 1.43-2.654 11.131-5.105 12.357-3.063 1.838 2.859.919 5.105-2.655 6.535-1.941.816-3.677 1.429-3.779 1.429-.204-.102-1.838-.715-3.676-1.531zM666.647 187.558c0-4.391 7.047-4.697 7.149-.307 0 .817-4.391 2.859-6.23 2.859-.51 0-.919-1.123-.919-2.552zM665.728 175.101c-2.042-7.249-1.225-7.759 7.455-4.798 4.494 1.531 4.8 1.838 4.494 4.798-.307 3.166-.511 3.268-5.617 3.574l-5.311.306-1.021-3.88zM626.514 171.732c-1.736-1.94-1.736-2.042 1.634-3.369 12.254-5.105 18.382-7.045 19.301-6.126.817.919.204 8.474-.715 8.474-.204 0-3.881.613-8.272 1.532-10.008 1.94-9.804 1.94-11.948-.511zM673.285 165.198l-3.063-1.328 5.616-1.735c4.8-1.43 5.719-1.532 7.047-.204 1.225 1.225 1.225 1.735.102 3.063-1.532 1.939-5.515 1.939-9.702.204zM632.539 159.48c-.306-.612-2.247-1.021-4.187-1.021-4.289 0-4.493-1.94-.511-4.901l2.962-2.144 5.719 2.246c3.165 1.226 5.616 2.553 5.616 3.063 0 .817-6.127 3.778-7.965 3.778-.511 0-1.328-.51-1.634-1.021zM24.713 439.438c-1.634-2.144-6.127-8.474-10.008-13.987-7.556-10.925-7.556-11.844-.306-11.844 3.166 0 4.085.511 5.821 3.369 1.123 1.838 3.064 4.186 4.187 5.31 2.043 1.837 2.145 1.837 5.106-.307 1.838-1.429 3.166-1.838 3.574-1.225 1.124 1.736 5.617 16.642 5.617 18.582 0 2.144-.51 2.451-6.23 3.37-4.493.612-4.8.51-7.76-3.268zM212.514 496.104c-.715-.715-1.225-1.634-1.225-2.042 0-.511-1.94-5.003-4.289-10.006l-4.187-9.189h-3.983c-3.574 0-3.983-.306-3.37-2.042.408-1.327-.204-3.471-1.532-5.615-2.246-3.676-3.88-4.187-9.191-2.655-3.982 1.123-11.029-.613-13.888-3.471-2.451-2.451-2.655-2.553-5.515-1.021-1.634.816-3.165 1.531-3.472 1.531-.204 0-.715-2.655-1.021-5.922-.409-3.165-1.634-8.985-2.859-12.762-2.656-7.964-2.451-8.27 4.901-9.393 3.268-.511 5.617-.103 9.498 1.531 5.412 2.348 6.331 3.778 7.863 12.456.613 3.574.817 3.778 5.923 4.391 2.859.306 6.842.51 8.782.306 3.166-.306 3.779-.919 6.23-5.922 1.532-3.165 2.553-6.024 2.246-6.432-.204-.409-3.267-2.349-6.944-4.288-4.799-2.757-6.74-4.493-7.557-6.841-1.634-4.799-1.429-5.718 2.349-9.598 3.064-3.267 3.983-3.573 7.966-3.267 4.289.307 4.493.511 7.352 6.126 1.634 3.267 5.719 12.15 9.191 19.91l6.23 14.09 5.923.816c5.514.817 6.127.715 8.578-1.531l2.553-2.348 2.451 3.063c1.327 1.633 3.88 4.9 5.514 7.249l3.064 4.288-3.676 1.225c-2.043.715-7.047 4.186-11.132 7.76-5.923 5.207-7.557 7.249-7.863 9.801-.204 2.655-1.328 3.778-6.434 7.045-7.046 4.39-6.842 4.288-8.476 2.757z"/><path d="M272.664 473.438c-2.962-3.165-4.085-3.574-10.723-4.186l-7.455-.715-7.046-9.598c-3.881-5.207-7.659-9.597-8.272-9.597-.715 0-2.349 1.123-3.574 2.553-2.145 2.45-5.208 3.063-9.6 1.939-1.736-.51-4.085-4.696-10.008-18.173-4.289-9.598-7.761-18.072-7.761-18.787 0-.919 2.043-1.225 6.944-1.225 8.374 0 34.926-4.697 36.56-6.432.715-.715 1.94-6.024 2.859-11.946s2.043-11.027 2.451-11.537c.511-.409 2.86-1.328 5.413-2.042 4.289-1.225 4.799-1.838 10.11-11.333 5.106-9.087 6.127-10.312 11.744-13.58 7.863-4.594 10.007-6.636 15.011-13.885 2.145-3.165 4.392-5.82 4.902-5.82.613 0 3.37 1.634 6.23 3.676 4.799 3.471 5.106 3.982 4.493 6.942-1.532 6.433-.102 9.802 4.187 9.802 2.757 0 2.859.511 4.595 12.66l1.226 9.189-2.86 2.042c-6.025 4.289-10.518 8.883-16.339 16.541l-6.025 7.759 1.94 9.291c1.021 5.105 2.043 10.108 2.349 11.129.408 1.532-.204 1.838-4.187 1.838-4.289 0-4.8.306-8.782 5.411-3.983 5.105-4.187 5.82-4.085 12.048.102 3.574.408 7.658.817 9.087.612 1.838.204 3.267-1.43 5.207-1.328 1.532-2.655 4.901-2.962 7.453-.612 3.778-1.327 5.003-3.676 6.229-1.634.816-3.166 1.531-3.268 1.531-.204 0-1.94-1.634-3.778-3.471zM463.018 603.717c-10.417-4.186-15.216-4.594-27.267-2.348-7.352 1.327-8.374 1.327-14.807-.511-6.638-1.837-7.047-2.144-9.6-7.045l-2.553-5.105-7.659-.714c-10.62-.919-11.131-.715-11.131 5.411 0 7.249-2.145 7.862-15.522 4.492-10.927-2.654-11.847-2.552-16.033 1.94-1.43 1.43-3.064 2.655-3.677 2.655-1.225 0-4.595-10.108-4.595-13.784 0-1.021 1.532-3.573 3.472-5.615 2.655-2.961 3.88-5.82 5.31-11.742l1.838-7.861 3.677.612c11.233 2.145 11.846 2.042 14.603-1.633 1.736-2.246 2.451-4.288 2.145-5.922-.409-2.144.919-4.084 8.271-11.231 4.8-4.799 8.681-9.087 8.681-9.495 0-.511-1.226-2.451-2.758-4.391-2.553-3.063-3.37-3.471-7.659-3.471s-5.004.306-8.169 4.186c-3.166 3.778-3.779 4.084-5.719 3.063-2.655-1.429-2.655-2.042-.307-8.78 1.634-4.799 2.145-5.208 6.332-6.229l4.493-1.123-.306-6.126c-.204-3.267.204-7.351.817-8.984.919-2.451.613-3.88-2.043-9.496-2.45-5.207-2.859-6.943-1.838-7.555 2.349-1.43 4.698-.919 10.212 2.348 8.476 5.003 11.132 7.045 12.153 9.7.715 2.042 1.532 2.45 5.412 2.45 2.451 0 7.455.919 11.029 2.042 3.575 1.021 6.536 1.94 6.638 2.042.102 0 1.328-1.634 2.758-3.676l2.45-3.675-2.45-7.147-2.349-7.147 2.655-5.309c1.43-2.859 3.676-6.841 5.004-8.883l2.349-3.778 18.79.205 18.79.102 15.727 10.312c11.131 7.249 19.811 12.047 29.513 16.131 7.557 3.268 15.624 6.739 17.871 7.658 14.808 6.636 13.072 6.33 20.935 4.186 4.8-1.225 8.374-2.961 11.233-5.411 2.655-2.246 5.617-3.778 8.17-4.084 2.859-.409 4.8-1.532 7.251-4.186 4.697-5.412 9.701-4.595 5.514.919-2.144 2.96-1.838 5.411 1.123 7.963l2.553 2.247-2.859 4.084c-1.532 2.348-4.902 6.126-7.455 8.372-4.289 3.88-5.514 4.39-14.297 5.922-9.599 1.633-14.603 3.879-18.994 8.78-.919 1.021-4.902 2.859-8.681 3.982-3.88 1.123-9.803 3.982-13.173 6.33-5.617 3.88-6.332 4.186-7.251 2.553-1.634-2.859-3.166-2.144-10.008 4.696-5.514 5.616-6.433 7.147-6.842 10.925-.204 2.45-.51 4.492-.613 4.492-.204.103-3.063 2.349-6.535 5.003-6.025 4.595-6.434 5.207-11.029 16.745-7.353 18.071-10.008 23.176-12.357 23.381-1.123.102-6.127-1.43-11.233-3.472z"/><path d="M363.756 405.031c-6.434-2.655-8.476-4.493-14.195-12.457-5.821-8.168-10.212-20.317-12.357-34.407-1.634-10.21-2.042-11.538-3.982-11.742-1.532-.204-3.37 1.123-6.434 4.799-3.064 3.573-5.106 5.207-6.842 5.207-3.268 0-3.881-1.838-1.94-6.432 1.429-3.574 1.429-3.676-1.328-6.024-1.532-1.327-4.595-3.574-6.638-4.901-4.085-2.757-4.391-3.676-2.553-7.657 1.226-2.757 1.532-2.961 10.519-4.697 8.169-1.532 10.314-3.063 11.131-7.76 2.553-14.702 3.778-18.48 6.536-19.705 10.007-4.594 13.377-5.207 25.632-4.084 18.177 1.634 18.484 1.736 18.484 4.595 0 2.144-.511 2.552-3.064 2.552-1.736 0-3.37.613-3.676 1.429-1.021 2.553 2.553 12.865 7.863 23.075 4.8 9.087 5.208 10.414 6.638 22.462.817 6.943 2.451 15.417 3.574 18.786 2.349 7.25 2.349 12.15.102 25.628l-1.736 10.21-6.127 1.633c-8.17 2.348-13.276 2.144-19.607-.51zM209.757 513.052c-3.064-1.939-5.004-2.45-7.659-2.042-3.268.511-4.085 0-9.395-5.309l-5.923-5.819-4.289 1.735a308.258 308.258 0 0 0-7.557 2.961c-2.655 1.021-3.779 1.021-6.638-.408-1.941-.817-6.944-2.144-11.131-2.859-6.128-1.021-8.374-1.838-10.927-4.288l-3.268-3.165 6.74-7.556 6.74-7.453-1.226-3.982c-.612-2.042-1.123-5.003-1.123-6.432 0-2.246.511-2.655 3.881-3.063 2.042-.204 5.208-1.021 6.944-1.838 2.859-1.123 3.472-1.123 5.412.817 2.757 2.45 9.804 3.777 15.625 2.756 4.902-.816 6.842 1.124 6.944 6.943 0 3.778.102 3.88 4.085 3.88h4.085l4.187 8.883c5.31 11.537 5.616 12.966 3.472 16.336-1.736 2.552-1.736 2.756.204 4.288 1.225.919 2.859 2.042 3.881 2.655 1.021.612 1.634 1.939 1.429 3.267l-.408 2.144-4.085-2.451z"/><path d="M120.605 511.827c-4.493-8.78-12.356-29.813-11.744-31.549.919-2.654 13.582-23.993 15.421-26.137.817-.919 2.961-1.736 4.697-1.736 4.289 0 6.842-1.94 10.723-8.066 3.166-4.901 6.944-7.249 11.335-7.249 2.451 0 5.923 9.291 6.74 18.072l.715 7.453h-2.553c-3.778 0-5.208 2.348-4.595 7.351.306 2.451.817 5.309 1.225 6.432.409 1.43-.715 3.37-4.085 7.147-12.458 13.478-13.582 15.111-14.705 21.339-.613 3.37-1.123 6.228-1.123 6.433 0 .816-6.74 4.39-8.272 4.39-.919 0-2.655-1.736-3.779-3.88zM183.41 448.525c-.715-1.123-1.838-8.372-1.43-8.372.306 0 2.145.715 4.289 1.531 4.8 2.042 7.047 1.328 6.434-2.042-.307-1.429-.102-2.552.408-2.552.715 0 4.494 2.042 6.842 3.778.205.102-.408 2.144-1.429 4.39l-1.838 4.084h-6.434c-3.472 0-6.638-.408-6.842-.817zM310.449 576.559c-6.332-2.042-6.945-2.553-12.051-9.802-4.391-6.228-6.433-8.168-11.233-10.618-5.617-2.859-6.229-2.961-15.625-2.247-6.842.511-10.62 1.226-13.071 2.655-1.94 1.123-3.779 1.838-3.983 1.634-.306-.307-1.123-4.901-1.838-10.415-1.123-7.555-1.94-10.414-3.676-12.354-2.553-2.654-4.085-2.961-7.149-1.123-1.838 1.123-2.451.919-5.208-2.654-1.736-2.144-4.289-4.289-5.617-4.799-1.838-.715-2.349-1.634-2.349-4.288 0-4.493-1.531-5.82-6.842-5.82-4.289 0-4.391-.102-4.391-3.369 0-2.451-.817-3.982-3.268-6.024-3.268-2.655-3.37-2.757-1.327-4.901 1.021-1.225 4.697-3.88 8.169-5.82 8.476-5.105 9.702-6.33 9.702-9.597 0-2.144 1.43-4.084 6.434-8.474 3.574-3.063 7.659-6.126 8.986-6.637 1.634-.613 6.434-.613 12.153-.204 9.293.817 9.701.919 12.969 4.492l3.37 3.676-3.064 8.27c-1.634 4.594-3.063 8.883-3.063 9.495 0 1.736 15.522 18.072 17.156 18.072.715 0 1.736 1.123 2.247 2.45.613 1.736 3.472 3.778 8.884 6.535 5.209 2.654 9.089 5.411 11.234 8.066l3.268 4.084 5.208-1.021c5.821-1.123 7.148-.409 7.148 4.084 0 2.756 3.472 3.88 9.089 2.961 3.676-.613 4.085-.409 5.208 2.552.715 1.634 2.451 3.778 3.779 4.697 2.348 1.531 2.961 4.594 1.736 7.861-.307.817-3.37 2.757-6.638 4.289-6.23 2.756-7.353 4.798-4.289 7.045 1.429 1.021 1.634 1.837.715 4.186-.919 2.654-1.328 2.858-5.311 2.654-2.655-.204-5.106.204-6.535 1.225-2.758 1.94-2.758 1.94-10.927-.816zM1341.36 805.467c-5.72-5.207-15.93-14.498-22.67-20.726-23.08-21.237-22.26-20.727-29.1-21.441-5.01-.613-6.64-.409-8.89 1.021-2.24 1.531-4.08 1.633-12.15 1.021-10.31-.715-12.66 0-22.67 6.84-5.31 3.676-7.15 3.37-13.48-2.246l-4.6-3.982 1.84-3.063c2.45-4.084 2.25-5.513-1.12-8.066-2.15-1.531-3.37-3.879-4.7-8.576-3.27-11.844-3.78-13.069-5.62-13.069-1.02 0-2.86 1.123-4.18 2.553-1.33 1.327-2.66 2.552-3.07 2.552-.3 0-2.04-2.144-3.88-4.594-1.73-2.553-3.78-4.595-4.49-4.595-.61 0-2.45 1.225-4.09 2.655-3.57 3.471-6.02 2.042-5.2-3.063.51-3.063.2-3.472-4.7-6.126-2.86-1.532-5.21-3.37-5.21-3.982 0-.715 2.35-2.859 5.21-4.799 4.9-3.267 5.41-3.369 9.39-2.45 6.64 1.735 19.71.816 27.37-1.838l6.84-2.246 5.01 3.267c6.13 3.88 7.56 3.982 15.21.612 4.7-2.144 7.05-2.552 10.73-2.144 4.49.511 5.31.205 13.27-5.105 5.21-3.471 11.44-6.636 15.63-7.861 4.49-1.43 7.45-2.961 8.17-4.186 3.98-7.352 6.12-9.7 9.49-10.313 2.15-.408 6.95-3.471 12.16-7.555 11.33-8.985 13.07-9.802 16.54-8.576 3.98 1.327 4.19 6.33.41 15.825-2.76 7.045-6.33 23.687-6.33 29.813 0 3.268.61 3.268 8.98.715 3.58-1.123 7.05-2.042 7.77-2.042.71 0 2.34 1.838 3.57 4.084 1.22 2.246 2.76 4.084 3.37 4.084.61 0 5.41-3.267 10.72-7.147 8.78-6.739 9.5-7.453 9.5-10.72 0-3.166.31-3.574 2.45-3.574 1.74 0 3.98-1.634 7.15-5.309l4.59-5.207 3.17 7.045c1.84 3.879 3.88 8.474 4.7 10.21l1.33 3.267-8.07 3.267c-4.5 1.736-8.17 3.778-8.17 4.39 0 .613 1.43 2.553 3.16 4.391l3.17 3.267-2.55 2.246c-1.64 1.429-2.86 3.88-3.27 6.432-.41 2.349-2.15 7.045-3.78 10.517-2.86 6.024-3.06 6.942-2.66 17.357.31 10.108.62 11.537 3.17 15.417 2.66 4.186 2.96 4.39 8.17 4.39 5.11 0 5.62.204 10.72 5.411 2.96 2.961 5.31 6.024 5.31 6.739 0 .817-.92 5.003-2.14 9.393-1.64 6.024-2.66 8.168-4.19 8.577-1.12.408-6.33.102-11.44-.613-8.78-1.123-9.6-1.123-14.39.919-4.7 2.042-18.39 6.33-20.22 6.33-.41 0-5.42-4.288-11.24-9.393zM1420.2 825.274c-.92-.408-4.09-3.675-7.15-7.249-9.8-11.537-9.19-10.21-7.66-16.846.82-3.165 1.53-6.024 1.74-6.126 1.63-1.328 21.34-11.844 22.26-11.844.61 0 2.76.715 4.7 1.736 3.57 1.633 4.08 1.633 12.87-.613 5-1.327 9.39-2.246 9.7-1.94.2.307-2.35 4.697-5.72 9.904-3.37 5.105-7.46 11.946-9.09 15.111-3.37 6.738-13.68 17.255-17.46 18.071-1.43.205-3.27.205-4.19-.204zM1540.13 434.84c-3.65-14.13.17.106-1.87-8.981-2.14-9.189-1.74-9.904-6.24-13.886l-4.7-4.186 1.74-7.351c2.15-8.78 2.96-5.615-10.93-45.026l-10.31-29.098-.72-13.069c-.91-15.213-1.32-16.234-10.92-23.075-3.68-2.552-7.76-5.615-9.19-6.738l-2.35-2.042 2.55-4.901c3.68-6.841 2.86-8.883-3.57-8.883h-5.01l-4.69 8.679c-3.37 6.228-4.6 9.393-4.19 11.026.41 1.226 3.67 4.697 7.25 7.658 4.08 3.267 6.64 6.228 6.64 7.351 0 1.123-.31 2.042-.72 2.042s-3.98-3.165-7.96-7.045c-7.76-7.555-11.85-9.699-15.63-7.964-2.86 1.226-3.37.715-6.33-6.738-2.04-5.412-2.55-5.82-5.51-5.82-4.29-.102-4.91-.613-8.79-7.453-2.86-5.207-3.67-5.922-7.25-6.535-3.47-.51-3.98-.919-3.98-3.369 0-3.369 3.27-7.862 11.54-15.723 3.47-3.37 7.76-8.475 9.4-11.231 2.55-4.289 3.57-5.207 6.43-5.514 2.55-.204 3.88-1.021 5.1-3.267 1.43-2.45 2.97-3.165 8.58-4.492 10.21-2.349 10.11-2.349 14.5 5.615 2.15 3.982 4.5 7.453 5.31 7.76.82.306 3.68-1.328 6.34-3.574 4.69-3.88 5.41-4.186 12.45-4.39l7.46-.306 1.84-6.637c1.02-3.675 1.94-8.066 1.94-9.801 0-1.736 1.12-6.024 2.55-9.598 1.43-3.573 2.55-8.066 2.55-9.904v-3.369h5.93c3.16 0 6.33.306 6.94.715.61.408 4.19 11.537 7.97 24.81 4.49 15.928 7.76 25.627 9.8 28.894 1.74 2.655 3.06 5.31 3.06 5.718 0 .408-4.08 2.042-9.08 3.471-5.01 1.43-9.5 3.268-10.01 3.88-.62.715-1.53 6.433-2.15 12.763-.92 9.597-.92 11.945.31 15.008 2.35 5.616 1.94 6.024-3.17 3.268-8.98-5.003-10-3.268-5 8.474 1.94 4.594 3.57 8.883 3.57 9.393 0 .511-1.83 3.267-4.08 6.126-2.25 2.859-4.09 5.514-4.09 5.922 0 2.348 24.92 40.534 27.27 41.759 1.02.51 4.19.612 6.94.306l1.71-3.165.7-4.465c2.29-2.564 3.7-1.739 5.33-2.249 2.15-.613 3.5 1.813 5.13 4.774.61 1.225 3.67 2.768 5.41 5.59 6.59 4.467 14.96 2.705 21.12 5.742-2.37 9.225-1.61 19.55-2.38 15.05-1.52-8.945 2.63 4.977 6.31 11.614l16.36 5.291 1.02 6.679c-7.87 6.739-4.9 25.789-5.58 24.653-3.82-6.396-.28.132 15.82 10.474 4.08 2.757-1.2 20.731 3.88 27.454 8.52 8.179 9.28 9.19 13.24 16.996l5.1 21.964-89.59-43.904c-5.14-4.773-10.23-11.507-10.54-11.405-.3.102-7.39-8.294-10.56-11.765z"/><path d="M1474.02 813.737c-1.23-2.961-1.53-5.616-1.02-9.189.61-4.697.4-5.309-4.6-13.069-2.86-4.492-5.62-9.393-6.23-10.823-.51-1.429-1.33-2.552-1.73-2.552-.41 0-5.11 1.327-10.42 3.063-11.34 3.573-11.34 3.573-16.54.919l-4.09-2.042-10.01 5.615c-5.61 3.165-10.41 5.718-10.72 5.718-.31 0-.61-.715-.61-1.634 0-.919-2.96-4.594-6.64-8.168-6.33-6.228-6.94-6.534-11.64-6.534-4.5 0-5.01-.306-6.95-3.88-1.53-2.757-2.24-6.228-2.55-12.967-.41-8.678-.31-9.597 2.96-16.642 1.84-4.084 3.37-8.576 3.37-10.006 0-1.327 1.43-3.982 3.17-5.921 2.55-2.961 2.86-3.982 2.04-5.616-.61-1.123-1.94-2.552-2.96-3.063-2.35-1.429-1.02-2.552 6.43-5.615 3.37-1.328 6.54-3.063 6.95-3.88.92-1.532-9.71-25.321-11.34-25.321-.51 0-3.06 2.45-5.72 5.513-3.98 4.595-5.41 5.616-8.58 5.922-3.77.306-3.77.306-3.47 4.493.41 4.186.31 4.288-7.35 10.005-4.29 3.165-8.17 5.718-8.68 5.718-.51 0-1.94-1.736-3.06-3.778-2.46-4.084-3.48-4.084-13.59-.919-4.49 1.43-4.9 1.328-4.9-.204 0-4.799 3.37-20.011 6.33-28.077 2.66-7.556 3.07-9.7 2.25-12.763-.82-3.267-1.53-3.982-5.21-5.309l-4.39-1.532-7.66 5.412c-4.19 2.859-8.07 5.309-8.58 5.309-1.12 0-4.18-10.006-4.18-13.784 0-1.531.51-3.573 1.02-4.696 2.04-3.778.1-6.943-6.84-10.925l-6.54-3.778.71-4.084c1.13-6.738 1.13-6.942-2.96-9.597-3.27-2.246-3.67-2.757-2.35-3.982 1.13-1.225 1.33-4.288.92-15.927l-.51-14.397 10.11-5.207 10.01-5.105-.2-6.126-.21-6.228 6.33-1.94 6.33-1.94.52-7.657.51-7.658 3.57-.408c7.05-.613 6.94-.817-5.41-16.744-6.54-8.373-7.87-10.721-8.78-15.724-1.43-7.555-1.54-6.84 2.04-11.027 3.57-3.981 3.47-5.105-1.13-12.762-1.53-2.655-3.37-6.432-4.18-8.576-1.23-3.268-1.13-3.88.41-5.514 1.43-1.327 3.26-1.736 8.17-1.429 3.47.102 8.37-.409 10.92-1.123 3.88-1.226 5.01-2.144 7.15-6.228l2.55-4.697h11.95l-.71-5.411-.62-5.31 5.01-3.879c5-3.778 5.21-3.88 9.9-2.757 7.36 1.634 12.36 4.697 15.73 9.495l3.06 4.493-2.96 4.084-2.96 3.982 2.55 3.777c2.86 4.186 4.91 4.595 8.58 1.736 2.25-1.736 4.19-2.042 15.12-2.042 10.11 0 12.46.204 12.46 1.429 0 .817-2.25 2.144-5.31 3.165-7.05 2.349-8.07 3.268-7.77 6.943.31 2.859-.1 3.267-4.08 4.697-2.45.919-5 2.552-5.62 3.675-.61 1.124-5.31 7.045-10.41 13.273a926.495 926.495 0 0 0-10.62 12.967c-1.13 1.532-1.03 2.655 1.02 7.453 2.55 6.126 2.45 7.454-1.64 17.97l-1.84 4.697 3.78 6.126 3.88 6.228-3.16 12.66-3.17 12.763 1.64 14.294 1.63 14.396-4.7 22.053c-2.65 12.15-4.49 22.564-4.18 23.075.4.51 2.65 1.021 5 1.021 3.57 0 5.82-.919 11.13-4.595 3.78-2.552 7.25-4.594 7.76-4.594.61 0 2.96 2.246 5.41 5.105 5.11 5.922 8.28 6.739 8.17 2.042 0-.306-.3-1.532-.61-2.757-.51-1.735-.1-2.552 1.53-3.471 2.76-1.43 4.19-.102 5.93 5.922.81 3.063 1.73 4.39 3.06 4.39 2.04 0 11.34-9.393 11.34-11.333 0-.715-1.43-3.778-3.27-6.841l-3.17-5.615 4.29-4.084c4.09-3.778 4.6-3.982 9.09-3.37 2.65.307 9.09.919 14.3 1.226 10.11.612 9.6.306 10.62 6.942.2 1.226 3.47 3.676 8.98 6.739l8.68 4.799 1.74 8.066c2.66 12.762 8.68 24.606 18.28 35.735 4.6 5.309 11.54 15.008 15.42 21.645l7.25 11.843.72 14.294c.4 7.964.3 14.805-.11 15.315-1.12 1.226-3.98-1.225-3.98-3.573 0-1.736-10.31-10.108-12.36-10.108-1.63 0-11.13 13.783-10.82 15.723.1 1.226 1.94 3.063 4.19 4.289 3.16 1.735 4.59 2.042 7.14 1.327 1.74-.511 3.27-.919 3.48-.919.1 0 .2 2.757.2 6.126v6.126h-3.16c-1.64 0-3.99.408-5.11 1.021-1.94 1.123-1.94 1.327 1.22 6.841l3.27 5.717-4.18 3.88c-4.19 3.88-4.29 3.982-12.36 3.982h-8.17l-3.68 5.615c-3.78 6.024-4.18 7.556-2.45 9.394 1.23 1.123.51 3.369-1.02 3.369-.51 0-1.63-1.94-2.55-4.186z"/><path d="M1389.46 471.294c-.92-2.145-.71-3.063 1.74-6.229l2.75-3.675-3.67-5.514c-3.88-5.819-9.81-9.699-16.95-11.128a590.49 590.49 0 0 1-5.21-1.124c-.92-.306-3.78 1.124-6.33 3.166-2.66 2.042-5.31 3.369-5.82 3.063-.52-.409-1.03-2.247-1.03-4.289 0-3.063-1.02-4.696-7.04-10.924-8.99-9.291-12.36-15.826-12.36-23.994v-6.024l6.74-3.471c3.78-1.838 7.05-3.982 7.35-4.697.21-.817-1.43-3.369-3.77-5.819l-4.29-4.289 5.92-5.309c4.29-3.778 6.54-5.105 7.96-4.696 1.13.306 3.27.816 4.8 1.123l2.76.612-.61-5.207c-.51-4.901-.41-5.411 3.47-10.006 2.25-2.756 4.39-5.513 4.8-6.228.41-.714-1.74-3.777-5.51-7.964l-6.34-6.738.72-4.901c.61-4.799.61-4.901-3.06-7.147-2.97-1.838-3.58-2.757-3.07-4.492 1.84-5.922 1.74-6.433-1.43-8.781-1.73-1.225-3.16-2.552-3.16-3.063 0-.408 3.06-2.757 6.74-5.207 3.67-2.45 7.15-5.411 7.66-6.739.61-1.735 1.63-2.348 3.88-2.348 3.67 0 3.67 0 5.51-8.066 1.43-5.922 1.33-6.432-.51-8.78-1.84-2.451-1.84-2.451.1-3.574 1.43-.715 2.25-.613 3.37.715.72.919 3.07 2.859 5.21 4.39l3.78 2.859 9.29-3.471c5.72-2.145 10.83-4.799 13.18-6.943 2.96-2.655 5-3.574 9.39-4.186 3.58-.409 6.95-1.634 9.09-3.165 5.41-3.982 7.56-3.37 11.95 3.675 3.27 5.309 4.19 6.126 6.94 6.126 3.78 0 4.5.817 6.95 7.249.92 2.553 2.24 5.411 2.96 6.432 1.33 1.736 1.53 1.736 4.7.103 3.06-1.634 3.47-1.532 6.53.408 1.84 1.123 6.03 4.799 9.4 8.168 3.37 3.369 6.63 6.228 7.25 6.228.92 0 6.53 24.198 6.53 27.975 0 .919-4.8.613-7.86-.51-1.53-.613-4.8-3.369-7.25-6.126s-5.31-5.003-6.43-5.003c-1.33 0-4.4 3.676-9.91 11.946-4.39 6.636-8.27 12.762-8.58 13.681-.71 1.736.41 5.922 8.89 33.489 5.51 17.867 8.78 24.912 13.27 28.588 1.43 1.225 2.04 1.123 4.6-.817 3.27-2.348 5.1-2.757 5.1-1.123 0 .613-2.24 3.676-4.9 6.943-4.29 5.207-5.21 7.249-7.76 17.051-3.47 13.17-4.19 14.804-6.54 14.804-3.57-.102-4.18-1.327-2.96-5.922 1.33-4.798.41-6.33-3.88-6.33-2.65 0-25.02 13.069-25.73 15.111-.41.817.2 3.88 1.22 6.841 1.02 2.96 1.54 5.819 1.13 6.432-.31.612-2.25 1.531-4.19 2.246-1.94.613-3.57 1.532-3.57 2.042 0 .613-5.52 1.021-12.46 1.021-10.83 0-12.97.306-15.63 2.042-3.88 2.553-4.39 2.553-5.82-.51z"/><path d="M1379.15 279.652c-4.5-3.778-5.11-4.084-7.56-2.961-2.45 1.123-2.96.817-6.64-2.655l-3.88-3.879-8.17.306-8.27.306-3.98-4.39c-3.88-4.186-4.09-4.799-4.09-10.925 0-5.922.31-6.84 3.58-10.822 2.65-3.165 3.57-5.31 3.57-8.066 0-2.655.92-4.901 3.27-7.76 3.16-3.982 3.16-3.982 1.22-6.126-3.67-4.084-11.13-8.78-17.76-11.129-3.68-1.327-7.05-2.756-7.56-3.267-1.43-1.225 1.63-7.045 10.01-18.684 8.78-12.048 9.8-13.886 9.8-17.255 0-1.43.61-2.961 1.23-3.369.71-.409 6.33-1.021 12.45-1.43 7.05-.51 11.54-1.225 12.36-2.144 1.74-1.838 2.66-14.702 1.12-16.54-.71-1.021-3.67-1.634-8.78-1.838-6.13-.306-8.27-.817-10.93-2.859-1.83-1.327-3.37-3.165-3.37-3.88 0-1.429 11.24-21.951 17.67-32.161 3.17-5.105 15.01-16.132 29.41-27.26 14.2-11.028 49.33-34.715 51.47-34.715 1.13 0 4.6.92 7.66 2.042 3.06 1.123 6.54 2.042 7.66 1.94 2.76 0 13.17-7.351 13.68-9.597.51-2.553-1.32-3.37-9.8-4.186-7.56-.715-9.09-1.838-5.92-4.493.81-.715 2.45-4.288 3.57-8.066 2.04-6.738 2.04-6.84 10.42-12.252 4.49-3.063 8.98-5.717 9.9-5.922.92-.204 3.27 1.021 5.21 2.655l3.58 2.961-1.84 6.943c-3.07 11.945-3.58 11.435 15.11 14.702 6.64 1.123 12.77 2.553 13.48 3.165 3.37 2.86 0 10.108-4.7 10.108-3.57 0-4.9 1.123-10.31 8.474-4.08 5.616-4.49 6.024-7.76 5.514-2.86-.51-4.19 0-8.48 3.471-5.31 4.186-5.72 4.901-6.74 11.64-1.32 8.168-.71 7.657-10 6.942-10.32-.714-11.34 0-10.32 7.76.41 2.757 1.23 5.82 1.84 6.637.71 1.02 4.9 2.144 11.23 3.063 5.52.816 10.52 1.837 10.93 2.348.51.51 1.84 4.492 2.96 8.985l2.04 8.066-4.49 6.636c-5.62 8.066-5.11 9.291 3.88 9.291 5.51 0 6.94-.51 11.54-3.573 5.92-3.982 6.54-4.084 14.6-2.451 5.01 1.021 6.34.919 11.85-1.021 8.17-2.859 10.72-2.756 14.09.715l2.86 2.961-7.66 8.168-7.66 8.168 3.99 16.132c2.24 8.882 3.88 16.744 3.57 17.459-.41 1.021-2.65 1.429-7.76 1.429h-7.15v4.595c0 2.654-1.12 7.249-2.55 10.72-1.43 3.267-2.56 7.556-2.56 9.393 0 1.838-.61 5.616-1.32 8.475l-1.33 5.105-7.15.51c-6.33.409-7.66.919-11.03 3.778-2.04 1.838-4.29 3.369-5 3.369-.61-.102-2.96-3.267-5.11-7.147-4.29-8.168-4.49-8.168-15.42-5.615-8.88 2.042-9.39 2.246-10.62 5.003-.71 1.735-2.25 2.654-5 3.063-3.47.612-4.29 1.429-7.87 7.351-2.14 3.675-6.43 8.78-9.39 11.333-8.38 7.147-10.62 10.925-10.62 17.867 0 6.943-1.74 8.577-10.32 9.598-4.29.51-6.23 1.327-9.49 4.39-3.58 3.165-16.96 9.189-20.53 9.189-.51 0-3.27-1.94-5.92-4.288zM1342.38 67.59c-3.37-3.675-3.78-4.696-3.78-9.7 0-4.798.31-5.615 2.35-6.227 1.23-.409 3.48-1.532 5.01-2.655 1.43-1.021 3.16-1.838 3.78-1.838 2.65 0 .2 23.279-2.56 24.198-.61.204-2.75-1.532-4.8-3.778zM1479.84 934.521c-.92-.612-.21-2.859 2.76-8.474 2.24-4.186 4.08-8.168 4.08-8.883 0-.714-2.96-6.024-6.64-11.843-4.59-7.454-8.27-11.844-12.25-15.009-3.07-2.45-5.62-5.207-5.62-6.126 0-2.042 3.07-11.333 4.29-12.865.51-.612 3.98-1.633 7.76-2.348 8.17-1.327 12.46-2.859 12.46-4.492 0-.613-.61-2.961-1.43-5.208-.82-2.246-1.74-8.984-2.14-14.804-.51-8.066-1.33-12.15-3.17-16.234-2.55-5.717-3.06-8.27-1.63-8.27.51 0 1.63-.613 2.65-1.429 1.84-1.226 1.84-1.532.21-3.88-1.54-2.451-1.54-2.757 1.02-7.351l2.65-4.697h15.73l5.62-5.003 5.51-5.003-2.76-5.717-2.75-5.616 3.77-.306c2.97-.306 3.88-.817 4.4-2.859 1.12-3.982 1.02-14.09-.11-14.805-.51-.408-2.65-.204-4.69.409-2.86.817-4.4.612-6.64-.511-1.64-.816-2.96-1.837-2.96-2.348 0-.408 1.83-3.471 4.18-6.636l4.19-5.82 4.7 3.369c3.37 2.451 4.9 4.288 5.1 6.228.31 2.042 1.23 3.165 3.68 4.186 2.76 1.123 3.47 2.042 3.98 5.31.41 2.144 1.64 7.861 2.76 12.66 2.04 7.862 2.25 12.354 2.76 51.05l.51 42.371-6.54 14.294-6.53 14.192-12.56 3.778c-6.85 2.144-13.08 4.288-13.79 4.901-.82.613-1.53 4.186-1.84 8.168-.31 3.88-1.43 9.087-2.45 11.741-1.53 3.778-2.45 4.697-4.49 4.697-1.43-.102-3.07-.408-3.78-.817z"/><path d="M1172.15 711.535c-7.15-5.411-7.87-6.432-11.13-15.213-1.94-4.901-5.62-10.21-19.41-27.465l-2.75-3.471-6.44 2.756-6.43 2.757-6.44-6.228-6.53-6.228-7.46.612c-4.08.409-8.17.919-9.08 1.226-.82.204-4.19 5.819-7.36 12.354-4.39 9.087-6.02 13.579-6.43 18.378-.51 4.39-1.33 6.943-2.66 8.168-1.94 1.735-2.14 1.633-4.8-1.736-1.94-2.348-3.37-3.267-4.49-2.757-3.16 1.123-17.56 11.129-21.24 14.703l-3.68 3.471-3.16-2.757c-3.88-3.165-3.99-3.981-1.64-27.158.92-8.985 1.33-16.949 1.13-17.663-.31-.715-2.05-1.634-3.78-2.042-2.25-.511-4.29-2.349-7.25-6.331-3.68-5.002-4.09-6.126-3.58-9.597.31-2.042.92-4.595 1.23-5.411.41-1.123-.72-2.451-4.09-4.493-2.86-1.735-4.59-3.573-4.69-4.696 0-2.144-3.88-9.291-7.87-14.703-1.73-2.45-3.57-3.471-6.53-3.982-3.78-.612-3.99-.714-2.35-2.45 1.33-1.532 1.43-2.45.51-5.309-2.15-6.33-3.27-6.739-18.485-7.147l-13.786-.204-.306-4.901c-.205-3.165.408-6.33 1.838-9.496 1.123-2.654 2.042-5.717 2.042-6.738 0-1.123-2.144-5.003-4.697-8.577-3.779-5.309-4.8-7.759-5.515-13.068-1.123-7.454-1.838-9.802-3.166-9.802-2.349 0-1.838-3.267 1.226-7.453l3.268-4.697-3.779-19.195-3.676-19.194-5.208-5.208-5.209-5.309 5.821-5.819c5.515-5.514 6.128-5.82 9.804-5.412 5.412.817 6.536-1.021 7.965-12.456.715-5.411 1.532-10.516 1.839-11.537.204-1.021 3.472-5.207 7.046-9.189 3.574-4.084 6.536-8.168 6.536-9.087 0-2.859-15.727-25.627-20.425-29.711-4.187-3.574-4.595-4.391-6.637-13.784-1.226-5.411-2.043-10.618-1.839-11.435.409-1.634 6.638-6.126 8.476-6.126.511 0 1.941 1.838 3.064 4.084 2.757 5.411 5.106 5.309 7.966-.51 2.757-5.718 4.901-7.045 15.42-9.7 8.577-2.042 10.317-2.042 10.317.408 0 2.145 6.02 6.739 8.78 6.739 1.33 0 7.86-2.246 14.5-5.003 6.54-2.757 12.97-5.309 14.2-5.615 3.37-1.123 3.57-3.268.81-9.496-2.96-6.534-3.06-8.372-1.12-11.129 1.22-1.633 2.55-1.837 9.19-1.633 7.45.306 7.97.204 11.44-2.859 1.94-1.634 3.98-3.063 4.39-3.063.51 0 5.62 4.186 11.44 9.393 8.06 7.351 10 9.496 8.47 9.802-2.14.408-4.49 2.042-4.49 3.267 0 .408 3.57 3.369 7.86 6.637 6.95 5.207 9.7 6.534 21.65 10.414 18.28 5.819 18.38 5.717 13.07-10.21-2.04-6.33-3.77-12.354-3.77-13.273 0-1.43 1.32-1.634 9.49-1.43l9.4.205 2.04-5.922c1.12-3.165 2.66-6.024 3.47-6.33.82-.307 4.29-.919 7.66-1.226 8.07-.816 10.01-1.837 9.29-4.696-.51-1.736.52-3.267 4.09-6.739 2.55-2.45 4.59-4.799 4.59-5.309 0-.511-3.16-3.369-7.14-6.228-7.36-5.309-7.76-5.922-8.48-14.396-.51-5.718-.1-6.33 8.27-11.027 18.38-10.414 30.33-17.868 36.46-22.973 6.23-5.105 7.35-5.615 11.13-5.309 4.49.307 4.39.102 2.96 7.045-.3 1.634 0 2.859.92 3.165 1.43.511 34.31-6.432 36.36-7.759.71-.409 5.1-8.475 9.9-17.868l8.68-17.153 8.17-4.288c8.07-4.186 8.27-4.186 13.99-3.165 4.39.817 6.44 1.838 8.17 3.88 1.23 1.531 2.35 3.165 2.35 3.573 0 .307.92.919 2.04 1.328 3.07.919 14.1-6.943 15.93-11.436 1.74-3.981 1.54-3.981 11.95.205 6.13 2.45 13.99 8.066 13.99 9.801 0 .613-.92 2.246-2.04 3.676-1.12 1.429-2.04 3.982-2.04 5.615 0 3.574-1.33 6.228-5.21 10.823-2.65 2.961-2.96 3.982-2.96 10.618 0 6.228.41 7.862 2.04 9.291 1.12 1.021 2.25 2.655 2.55 3.676 1.03 3.267 7.87 5.411 15.12 4.595l6.53-.715 5.62 6.228 5.72 6.33-1.23 5.309c-1.12 4.901-1.43 5.31-4.69 5.82-2.66.408-3.58 1.123-4.09 2.961-.41 1.736-3.16 4.186-8.37 7.657-4.39 2.859-7.87 5.82-7.87 6.739-.1.817 1.54 2.553 3.58 3.88 2.96 1.94 3.57 2.757 2.96 4.594-1.94 6.228-1.84 6.637 1.94 8.985 3.57 2.348 3.78 2.553 3.17 7.045-.62 4.595-.51 4.799 5 10.721 3.17 3.369 5.72 6.636 5.72 7.249 0 .612-1.84 3.267-4.19 5.921-3.57 3.982-4.08 5.208-3.78 8.373.41 3.573.41 3.573-2.96 2.961-3.16-.613-4.08-.103-10.52 5.615-3.98 3.471-7.15 6.841-7.15 7.555 0 .613 1.64 2.757 3.58 4.697 2.04 1.94 3.47 3.88 3.27 4.39-.11.409-2.96 2.349-6.33 4.084l-6.13 3.268-.31 6.636c-.41 9.393 3.58 17.765 12.46 26.24l6.43 6.228 1.43 8.474c2.05 12.15 2.25 11.64-3.57 11.64-5 0-5.11 0-7.46 4.696-2.96 5.922-6.43 7.351-17.56 7.147-7.56-.204-7.86-.102-9.6 2.757-.92 1.736-1.74 3.675-1.74 4.492 0 .817 2.15 5.412 4.7 10.312l4.6 8.883-3.17 3.982-3.27 3.982 1.64 7.657c1.43 7.249 2.14 8.475 9.8 18.174 8.38 10.619 8.78 12.048 3.47 12.15-2.35 0-3.47 3.574-3.47 11.742v4.084l-6.33 2.042-6.43 2.042.3 6.126.31 6.126-10.01 5.309-10.01 5.207.41 14.804c.31 14.192.21 14.805-1.84 15.928-3.26 1.736-2.55 3.778 2.25 6.432 4.49 2.553 4.49 2.655 3.37 9.7l-.71 4.186 6.63 3.88c3.68 2.144 6.95 4.492 7.25 5.309.31.817 0 3.063-.71 5.003-1.12 2.961-.92 4.696 1.02 12.252 2.55 10.006 2.35 10.72-4.39 12.456-3.88.919-4.9 1.838-8.17 7.045-3.47 5.615-3.98 6.126-9.5 7.351-3.78.919-8.78 3.472-14.7 7.453-8.48 5.718-9.3 6.024-13.48 5.31-3.48-.511-5.62-.103-10.32 1.939-7.45 3.37-8.47 3.268-14.81-.612l-5.2-3.267-8.48 2.756c-9.19 2.961-18.89 3.574-26.45 1.532-4.29-1.123-4.49-1.123-10.93 3.573-3.57 2.655-6.74 4.697-7.04 4.697-.31 0-3.58-2.348-7.25-5.207zM1138.04 275.976c-1.02-6.636-.82-7.453 3.06-8.985 4.09-1.735 12.77-1.633 13.38.205.41 1.123-9.09 8.984-13.68 11.435-1.84 1.021-2.15.715-2.76-2.655zM1097.7 257.802c-2.55-.816-5-1.837-5.51-2.45-1.03-1.021-3.68-13.069-3.78-17.153 0-2.246.2-2.348 8.98-2.042l8.89.409-.31-3.063c-.1-1.736-.3-4.289-.51-5.616-.1-1.94.31-2.552 1.84-2.552 1.43 0 2.25 1.021 2.86 3.879.92 3.676 1.53 4.289 7.97 7.147l6.94 3.268-5.11 6.636c-10.82 13.988-12.25 14.703-22.26 11.537zM1120.58 232.175c-7.87-4.288-7.46-9.801.81-11.129 3.27-.51 3.58-.306 4.7 2.757 1.23 3.778 1.53 11.231.41 11.129-.51 0-3.06-1.225-5.92-2.757zM1137.63 217.473c-2.76-2.859-1.12-4.492 9.5-9.802 13.78-6.84 14.29-6.84 13.38-.204-.41 2.757-.92 5.718-1.23 6.432-.31.817-4.08 2.145-8.37 3.063-9.4 2.042-11.65 2.145-13.28.511zM1581.14 746.759c-1.63-.919-3.88-2.348-5-3.267-3.88-3.369-13.79-17.255-18.49-25.933-4.18-7.76-5.31-9.189-9.08-10.823-3.58-1.531-7.77-6.024-22.68-24.198l-18.27-22.155-8.28-3.88c-10.31-4.697-15.21-9.087-21.75-19.297-5.51-8.576-6.23-11.537-3.47-14.498 1.33-1.532 1.53-2.757.71-6.739-.91-4.901-1.32-5.309-9.08-8.678-3.48-1.43-3.99-3.574-1.23-5.207 1.53-1.021 2.76-.103 8.37 5.717 3.58 3.778 10.22 10.108 14.81 14.09 5.21 4.594 8.78 8.679 9.81 11.027 1.32 3.471 3.26 4.799 20.11 14.09 31.76 17.663 41.06 22.972 41.97 23.891.62.51-1.73 2.144-5.82 3.982-3.77 1.736-7.14 3.778-7.45 4.594-.31.817 1.84 6.943 4.7 13.58 2.96 6.636 6.43 14.6 7.86 17.765 2.96 6.739 3.78 7.147 25.02 14.192 13.17 4.288 19.71 8.168 13.48 8.066-1.63 0-5.51-.409-8.58-.919-4.08-.613-6.02-.51-6.94.408-1.43 1.328-1.53 1.021 3.47 12.559 1.74 3.88.71 4.288-4.19 1.633zM769.994 974.34c-2.757-.306-3.983-1.327-6.332-5.105-1.736-2.552-3.267-5.513-3.574-6.432-.817-2.552-2.961-3.063-6.127-1.429-2.859 1.531-11.335 1.837-15.829.612-2.655-.714-16.645-19.297-15.726-20.828.306-.409 1.633-.715 2.961-.715 2.042 0 2.757-.817 3.779-4.186 1.021-3.574 1.021-4.39-.307-5.105-5.616-3.267-5.514-3.369 3.472-6.33 8.374-2.757 8.783-3.063 12.868-8.883 4.493-6.432 5.208-6.739 11.539-5.207 4.494 1.021 5.311.306 6.434-5.514 1.327-7.657 1.43-7.759 10.621-5.717 4.391 1.021 8.476 2.144 9.088 2.552 1.634.919.307 3.778-3.063 6.739-2.86 2.348-2.962 2.859-2.655 9.597l.306 7.147 4.493 1.328c3.881 1.021 4.902 1.021 6.74-.204 2.145-1.328 2.349-1.124 5.413 5.411 1.736 3.778 4.187 8.576 5.412 10.618l2.349 3.88-2.86 2.961-2.961 3.063 3.166 3.574c3.063 3.471 3.37 6.126.919 6.942-.715.307-5.106 1.328-9.804 2.451-7.557 1.736-8.884 2.348-11.642 5.717-1.736 2.145-3.574 3.778-4.187 3.676-.612-.102-2.655-.306-4.493-.613z"/><path d="M685.029 850.697l-10.518 4.39c-7.557 3.063-13.787 4.901-21.956 6.126l-12.868 2.961c3.064 4.901 5.311 11.64 14.808 38.288 4.085 11.435 7.659 20.624 7.965 20.624.409 0 2.451-2.348 4.596-5.207 5.616-7.555 7.659-6.33 11.335 6.534l1.634 5.82 5.208.102c2.962.102 10.519.102 16.748-.102l11.336-.204 3.268 4.594c2.757 3.778 3.778 4.493 5.82 4.084 1.43-.306 2.962-1.429 3.677-2.552 1.225-2.348.817-2.655-5.311-6.126-2.757-1.532-3.063-2.144-2.042-3.369.715-.919 1.634-1.532 2.247-1.532.612 0 4.902-1.225 9.701-2.654 8.272-2.553 8.476-2.655 13.174-9.189l4.697-6.637 5.515.511c5.31.714 5.412.816 6.025-2.042a99.423 99.423 0 0 1 2.145-7.147c1.123-3.064 1.327-6.331.817-12.763l-.715-8.576-9.804-11.436c-5.412-6.33-10.314-11.537-10.927-11.537-.612 0-1.736.715-2.451 1.532-2.246 2.756-4.595 3.471-14.297 4.594l-9.497 1.021-5.106 5.616c-2.859 3.165-5.719 5.615-6.332 5.513-.612-.204-5.31-5.003-10.007-10.721l-8.885-10.516zM1002.12 930.845l-9.195-2.246-3.166-8.984c-1.838-4.901-3.472-9.087-3.677-9.394-.817-.714-42.891-9.801-46.567-10.005-4.8-.307-6.638-3.064-6.025-8.781.408-3.165 1.225-5.105 2.961-6.33 2.758-2.144 2.553-1.94 7.557-7.76 4.596-5.309 7.762-5.513 8.579-.715.51 2.757 1.736 3.676 13.275 9.394 8.783 4.288 13.991 6.33 16.748 6.33 2.86 0 5.821 1.225 9.906 3.88 5.31 3.369 5.923 4.186 5.719 6.942-.204 2.757.102 3.063 3.365 3.37 2.35.204 4.29 1.123 5.83 2.961l2.24 2.756 4.7-2.348c5.92-2.961 7.66-4.799 7.66-7.964 0-1.735 2.14-5.003 6.53-9.903 3.58-3.982 7.05-8.985 7.66-10.925 1.03-3.063 8.89-12.865 21.65-26.75 1.13-1.226 2.15-5.207 2.86-11.231 2.35-20.42 2.45-22.871.82-25.423-.82-1.328-2.86-6.433-4.39-11.333-2.86-8.883-2.86-8.985-1.23-15.111 1.84-6.841 2.25-5.922-5-11.844-3.47-2.756-2.04-6.024 3.88-9.087 3.57-1.837 5-3.165 5.51-5.411.62-2.757.92-2.961 7.97-3.573 7.56-.613 9.91-2.042 9.91-5.922 0-2.144 1.02-2.246 6.43-.817 3.27.919 4.29.817 5.72-.511 2.45-2.144 3.67-1.939 5 1.021 1.33 2.859 1.43 2.859 10.01 1.43 5.21-.919 7.35-1.94 11.03-5.207 3.78-3.267 4.7-4.799 5.31-8.781.51-3.675 1.53-5.615 4.39-8.168 5.41-5.003 8.37-4.288 4.19 1.021-2.96 3.88-2.56 7.964 1.84 16.336 6.84 13.171 11.03 18.889 14.19 19.603 1.53.307 5.31 2.042 8.27 3.676 5.01 2.859 5.31 3.369 5.31 7.045 0 3.369-.41 4.084-3.06 5.207-3.57 1.429-9.5 8.168-17.46 19.807-3.07 4.391-6.03 8.781-6.74 9.7-2.15 2.859.71 10.516 4.59 12.252 5.72 2.552 5.21 6.432-2.24 15.315-3.07 3.778-6.85 6.738-11.54 9.189-6.44 3.369-6.95 3.982-7.77 7.862-.61 3.165-1.83 5.002-4.8 7.453-2.24 1.736-5 5.105-6.12 7.249-1.94 3.778-2.35 4.084-6.44 4.084-3.26 0-5.41.715-8.68 3.063-2.75 2.144-4.9 2.961-6.23 2.552-2.65-.816-9.29 2.451-9.29 4.697 0 1.021.51 2.961 1.12 4.288 1.03 2.144.82 3.063-1.02 5.616-3.16 4.492-2.75 6.943 1.54 9.189l3.67 1.838-3.57 2.45c-2.66 1.838-3.78 3.369-4.19 6.33-.71 4.492-1.33 4.595-12.15 2.144-5.52-1.225-9.81-1.429-17.36-1.021l-10.11.715-7.97 5.615c-4.7 3.268-8.99 5.514-10.31 5.514-1.33-.102-6.54-1.123-11.64-2.349z"/><path d="M1078.3 928.906c-3.58-2.859-4.09-3.778-3.88-6.841.2-2.859 1.02-4.084 4.49-6.637 2.35-1.735 4.29-3.675 4.29-4.492.1-.715-1.74-2.042-3.98-3.063-4.7-1.94-4.9-2.859-1.94-6.739 1.94-2.45 2.14-3.165 1.12-6.534-1.02-3.165-.92-3.88.61-5.003 1.02-.817 2.96-1.123 4.7-.817 2.25.409 3.78-.102 6.94-2.552 2.76-2.246 5.52-3.369 9.3-3.88 4.7-.613 5.51-1.021 6.84-3.982.92-1.838 3.68-5.309 6.33-7.862 3.17-3.063 4.9-5.615 5.31-8.168.61-3.267 1.33-3.981 7.05-6.534 5.21-2.45 7.35-4.288 12.25-10.414 5.52-6.943 5.93-7.862 5.62-12.15-.31-4.084-.72-4.799-3.57-6.126-4.7-1.94-6.44-7.453-3.58-10.618 1.12-1.226 3.78-4.901 6.03-8.271 6.33-10.005 12.86-17.663 15.62-18.378 4.09-1.123 5.11-2.552 5.11-7.351 0-3.471-.62-5.003-2.45-6.84-2.97-2.655-10.93-6.739-13.28-6.739-2.55 0-15.42-21.135-16.14-26.546-.3-2.246.21-2.552 6.44-3.676 12.05-2.246 15.83-5.411 14.7-12.456-1.32-8.168-1.43-8.27-5.1-8.985-4.7-.918-6.64-4.492-6.64-12.558 0-7.147.2-7.249 10.01-7.249h6.84l2.04 5.207c1.74 4.493 3.37 6.432 10.21 11.742 4.5 3.573 10.83 7.861 14 9.699 5.51 2.961 5.82 3.369 5.61 6.739-.2 3.063.31 3.777 3.58 5.717l3.77 2.144 2.46-2.246c1.32-1.225 2.65-2.246 3.06-2.246.31 0 2.04 2.042 3.88 4.595 1.84 2.45 3.88 4.594 4.49 4.594.72 0 2.45-1.021 3.99-2.144 1.53-1.225 2.96-2.042 3.16-1.838.1.204 1.23 3.676 2.45 7.658 1.23 4.186 3.27 8.372 4.7 9.801l2.55 2.553-2.14 2.654c-1.12 1.532-1.94 3.37-1.74 4.084.21.817 3.27 3.778 6.84 6.739l6.44 5.411-5.72 5.718c-4.19 4.288-6.33 7.555-8.17 12.66-2.96 7.658-2.76 9.496 1.23 10.414 1.53.409 4.79 2.961 7.25 5.718l4.49 5.105-2.76 6.126c-2.65 5.922-2.76 6.637-2.45 21.339.31 14.396.41 15.315 2.76 17.867 2.86 2.961 2.04 4.595-3.07 6.739-2.24.919-3.77 2.757-5.51 6.739-1.53 3.471-3.27 5.819-4.8 6.33-5.21 2.042-11.54 2.246-16.65.714-7.76-2.348-9.08-2.042-12.25 2.553-3.17 4.594-3.68 4.697-11.44 2.45-6.74-1.94-15.01-1.531-17.46 1.021-.92.919-3.98 5.616-6.84 10.517-4.9 8.474-5.72 9.291-17.98 18.276l-12.76 9.495-17.06 2.042c-23.07 2.859-24.1 2.859-29.2-1.225z"/><path d="M1009.57 906.852c-.41-1.327-1.84-2.144-4.6-2.654-3.57-.613-3.98-1.021-3.67-2.961.71-3.37-12.256-11.844-17.975-11.844-2.961 0-7.557-1.736-15.829-5.82-10.518-5.105-11.846-6.126-12.458-8.882-1.328-6.433-6.332-6.535-12.459-.204-4.391 4.492-4.494 4.594-6.945 2.96-2.042-1.327-3.063-1.429-5.106-.51-2.348 1.123-3.676.613-12.969-4.595-8.885-4.9-11.233-5.819-15.829-5.921-5.208 0-5.616-.307-9.906-5.105-2.45-2.859-4.493-5.412-4.595-5.82 0-.306 2.349-2.144 5.106-3.88 2.859-1.838 5.106-3.369 5.208-3.471 0-.102.817-5.003 1.838-10.823 1.634-9.393 1.634-11.231.511-14.702-1.634-4.493-2.144-3.472 7.149-14.396l3.982-4.697-3.268-8.372c-1.736-4.697-3.165-9.087-3.165-9.802 0-.612 1.327-3.88 3.063-7.249l3.064-6.024 5.821-.612c9.191-1.021 10.008-1.328 11.539-4.084.817-1.43 1.737-2.553 2.145-2.349.409.102 2.655 2.757 5.004 5.718 3.676 4.696 4.595 5.309 7.455 5.105 3.268-.306 3.268-.409 3.37-6.024 0-5.309.51-6.432 7.863-17.663l7.863-11.844-1.531-3.778c-2.145-5.003-2.043-5.309 2.042-6.024 2.962-.51 4.493 0 9.906 3.37 6.331 3.982 13.378 6.432 15.931 5.615.612-.204 1.225-1.633 1.225-3.165 0-1.429.919-4.696 2.043-7.147 2.757-6.126 2.655-6.841-2.043-9.904-4.493-2.96-4.697-3.777-2.553-7.555.817-1.429 1.532-5.003 1.532-7.862 0-5.105-.102-5.309-3.37-6.432-1.94-.613-4.698-2.45-6.229-3.982-2.553-2.757-2.758-3.267-1.736-6.943.612-2.144 1.123-5.513 1.123-7.351 0-2.654 1.123-4.799 4.493-8.678 4.289-5.105 4.494-5.718 6.332-16.847l1.838-11.537-3.881-3.267-3.88-3.166.817-10.924.715-10.925 6.944-4.697c6.229-4.084 7.046-4.39 7.965-2.858.82 1.429.307 2.552-2.246 5.105-3.881 4.084-3.166 5.003 4.796 6.024l6.03.918 3.88 6.331c2.14 3.471 3.98 7.657 4.19 9.189.2 1.94 1.63 3.675 4.59 5.615 3.88 2.655 4.19 3.165 3.37 5.514-.61 1.429-1.02 3.471-1.02 4.492 0 2.859 9.19 16.336 11.13 16.336 4.39 0 4.49.613 2.66 22.462l-1.84 20.726 3.98 3.37c6.03 5.207 7.15 5.207 12.05.612 3.98-3.777 18.18-13.477 19.81-13.477.41 0 2.05 1.532 3.58 3.574 1.53 1.939 3.27 3.573 3.78 3.573.51 0 2.55-2.144 4.59-4.799 2.96-3.879 3.58-5.615 3.58-9.597 0-3.778 1.22-7.555 5.51-16.54 5.41-11.538 5.51-11.64 9.4-12.354 9.39-1.532 10.72-1.124 17.25 5.513 3.37 3.369 6.54 6.126 7.15 6.024.51 0 2.86-.919 5.11-1.94 2.24-1.123 4.9-2.042 5.82-2.042 1.74 0 17.26 18.991 17.97 21.951.21.919-1.73 1.532-7.45 2.042-8.99.817-9.7 1.532-9.7 10.108 0 7.658 2.86 13.478 7.14 14.397 3.58.714 5.42 4.084 4.91 9.086-.41 3.778-4.29 6.229-11.44 7.25l-5.01.714 1.74-2.348c2.25-3.267 2.15-3.676-1.33-5.513-2.86-1.43-3.06-1.43-8.17 2.654-4.39 3.676-5.2 4.901-5.82 8.781a15.128 15.128 0 0 1-3.78 8.066c-3.88 4.492-5.1 5.105-12.05 6.024-5.71.714-5.71.714-6.84-2.451-1.33-3.778-2.45-3.982-6.43-1.021-2.86 1.94-3.27 2.042-7.46.613-5.1-1.838-6.33-1.328-7.35 2.859-.92 3.981-1.94 4.492-8.78 4.594-7.35 0-8.99.613-8.99 3.574 0 2.858-1.02 3.879-6.64 6.942-3.06 1.736-4.18 3.063-4.69 5.718-.82 4.186-.31 5.922 2.04 6.636 1.02.307 2.76 1.532 3.88 2.553 2.04 1.94 2.14 2.246.61 8.066-1.53 6.126-1.53 6.228 1.74 16.132 1.84 5.615 3.67 10.516 4.18 11.026 1.23 1.328 1.13 10.721-.1 18.889-.61 3.676-1.32 8.168-1.63 9.904-.31 2.246-3.68 6.84-11.13 15.315-6.54 7.351-11.13 13.579-11.85 15.825-.61 2.042-4.29 7.249-8.17 11.538-5.1 5.717-7.04 8.576-7.04 10.618 0 2.246-.82 3.267-3.78 4.799-2.15 1.123-4.19 2.144-4.5 2.246-.4.204-.92-.511-1.12-1.634zM782.044 923.801c-2.042-1.021-2.553-2.144-2.859-6.024-.306-4.186 0-5.003 2.451-6.637 5.106-3.471 15.727-14.498 15.727-16.336 0-1.021-.715-4.594-1.532-7.963-2.043-8.577-1.941-10.619 1.123-14.601 2.655-3.369 2.655-3.573 1.123-7.453-1.225-3.165-1.327-4.697-.408-7.556 1.327-4.492.715-5.207-3.472-3.675-1.838.613-3.472.919-3.677.715-.204-.205.511-2.451 1.43-5.003 1.736-4.697 1.736-4.799-.613-8.883-2.144-3.88-2.348-7.249-.408-7.147.51 0 2.144 2.144 3.676 4.594 3.37 5.208 4.698 5.514 16.033 3.063 3.677-.816 7.047-1.02 7.455-.612.511.51 1.328 2.859 1.838 5.309.511 2.451 3.983 10.312 7.557 17.357 3.677 7.147 6.638 13.477 6.638 14.294 0 .715-1.532 2.961-3.37 4.901-1.94 2.042-3.983 5.615-4.697 7.964-.919 3.573-2.758 5.615-9.804 11.537-5.821 4.799-8.885 8.168-9.293 10.006-1.43 6.738-1.838 7.147-9.293 7.862-9.191.816-10.621 1.327-10.314 3.369.408 2.144-2.043 2.552-5.311.919z"/><path d="M786.129 901.134c0-1.531-2.246-2.246-13.378-4.696-5.514-1.123-5.821-1.43-6.433-4.901-.307-2.042-.613-6.33-.613-9.597 0-5.718-.102-6.024-6.332-13.273-3.574-4.084-8.782-10.21-11.744-13.58l-5.31-6.228-1.532-12.66c-.817-7.045-1.838-14.804-2.246-17.357l-.613-4.697 7.659-1.633c4.187-.919 10.11-3.165 13.072-4.901 4.595-2.757 6.74-3.267 17.054-4.084 6.433-.613 11.744-.919 11.948-.715 5.208 6.535 9.701 13.988 9.701 16.132 0 1.634-1.327 3.982-3.778 6.33-2.145 2.042-4.698 5.412-5.821 7.351-1.94 3.574-1.94 3.574.511 8.168l2.349 4.493-2.247 5.513c-1.226 2.961-2.247 6.024-2.247 6.841 0 1.327.307 1.327 6.536-.715 1.634-.408 1.838-.204 1.328 1.736-.307 1.327.204 3.88 1.021 5.718 1.634 3.369 1.634 3.573-1.226 7.657-2.859 4.084-2.859 4.39-1.634 10.006 2.758 12.66 2.758 13.273-.919 17.05-3.778 3.88-5.106 4.391-5.106 2.042zM862.822 275.976c0-.919.817-7.453 1.838-14.294 1.43-9.597 2.349-12.864 3.779-13.885 2.859-2.144 4.187-1.838 5.719 1.225 1.225 2.246 2.042 2.654 5.004 2.552 3.574-.204 3.676-.102 6.74 6.841 2.348 5.105 2.859 7.249 2.042 7.964-1.226.919-23.896 11.435-24.713 11.435-.307 0-.511-.817-.409-1.838zM844.543 257.292c-4.596-1.021-8.783-2.144-9.294-2.348-.408-.307-1.634-3.165-2.655-6.228-1.327-4.493-1.532-6.943-.919-11.027.919-4.901 1.124-5.309 4.902-6.535 6.332-2.042 14.603-1.837 17.769.511 2.655 1.94 2.757 2.348 3.064 13.681.204 9.904 0 11.64-1.43 12.763-1.021.714-2.042 1.225-2.349 1.225-.306-.102-4.391-.919-9.088-2.042zM825.139 224.314c-2.757-3.063-2.961-3.982-2.246-6.841.51-1.838 1.429-5.309 2.042-7.658 1.123-4.492 5.413-10.516 7.455-10.516s8.782 11.435 9.497 16.03c1.124 7.249.102 9.087-6.127 10.925-7.251 2.144-7.046 2.144-10.621-1.94z"/><path d="M941.557 487.119c3.064.817 5.821 2.757 9.089 6.126l4.698 4.901 3.166 16.846c1.838 9.189 3.267 17.357 3.267 18.072 0 .613-1.633 3.165-3.574 5.513-4.289 5.31-4.391 6.739-.612 9.496 2.45 1.838 2.961 3.063 3.574 8.576.51 5.309 1.429 7.658 5.208 13.375 2.553 3.778 4.595 7.556 4.595 8.475 0 .918-.919 3.471-2.144 5.819-1.838 3.574-2.043 5.412-1.532 10.823.306 3.675.817 6.841 1.226 7.249.714.715 2.655.817 16.543.919l9.906.204-6.025 3.982c-3.37 2.246-6.434 4.697-6.842 5.411-.409.715-.919 6.535-1.022 12.967l-.204 11.537 3.37 2.859c3.166 2.553 3.37 3.063 2.757 7.249-2.757 18.48-2.45 17.255-6.944 21.952-3.88 3.982-4.493 5.105-5.106 10.822-.408 3.574-1.123 7.351-1.43 8.577-.817 2.756 4.494 9.087 9.396 11.129 4.187 1.735 4.391 4.39.817 11.128-1.43 2.655-2.553 5.208-2.553 5.616 0 .51 2.144 2.144 4.697 3.676 3.268 1.939 4.493 3.165 4.187 4.39-.306.919-1.123 3.267-1.838 5.309-.613 1.94-1.328 4.084-1.532 4.799-.408 1.531-2.961 1.531-6.434.204-1.327-.613-5.106-2.655-8.373-4.595-4.902-2.96-6.536-3.471-9.396-2.96-2.859.51-6.229 1.225-6.944 2.144-.715.919-.715 1.838 0 3.267 3.472 6.33 3.472 6.432-4.595 18.582-6.74 10.312-7.557 12.15-7.557 16.54 0 6.637-1.736 6.33-7.659-1.225-2.553-3.369-5.106-6.126-5.617-6.126-.409 0-2.145 1.634-3.779 3.676-2.859 3.471-3.472 3.777-10.11 4.39l-7.046.613-3.778 7.147c-2.145 3.879-3.779 7.861-3.881 8.678 0 .817 1.43 5.207 3.064 9.597 3.472 8.985 3.88 7.862-4.392 17.357l-5.004 5.616 1.532 4.594c1.43 4.187 1.43 5.616 0 14.294l-1.634 9.598-5.412 3.778c-3.064 2.144-5.515 4.492-5.515 5.309 0 .817 2.656 4.39 5.923 7.964 3.166 3.675 5.821 6.942 5.821 7.249 0 .408-5.004 2.144-11.233 3.982l-11.233 3.267-.919 4.288c-.613 2.757-1.839 4.901-3.37 5.922-1.328.817-4.187 4.594-6.332 8.372-6.74 11.435-10.416 14.09-23.59 16.846-.817.205-5.106-.204-9.395-.816-6.536-.919-8.476-1.634-10.723-3.982l-2.859-2.859 5.821-5.309c4.085-3.676 6.127-6.535 6.842-9.189.51-2.042 2.655-5.718 4.595-8.066 2.043-2.348 3.677-4.901 3.677-5.718 0-.714-3.166-7.657-7.047-15.315-3.778-7.759-7.352-15.927-7.659-18.276-1.327-7.351-2.042-7.759-10.62-6.024-10.927 2.349-12.561 2.145-15.216-1.735-3.575-5.309-3.677-6.228-.307-9.393 2.553-2.451 3.064-3.778 3.064-7.454 0-3.675-.817-5.717-4.493-10.924l-4.494-6.433 1.838-2.859c1.226-1.837 1.736-3.879 1.328-5.921-.409-2.655.306-4.186 3.676-8.475 3.37-4.186 4.187-6.024 4.187-9.393 0-3.88-.204-4.186-3.778-5.105-13.685-3.573-12.561-2.961-12.561-7.045 0-4.696.408-5.207 6.433-9.291 5.311-3.675 5.515-4.39 3.166-10.312-1.532-3.88-1.838-4.084-6.025-4.084s-4.698-.408-9.701-6.636c-5.923-7.25-5.923-7.25-20.22-8.271-11.54-.816-13.583-2.144-10.519-6.84 1.94-3.063 1.94-3.165-.306-9.189-1.532-4.391-1.838-6.228-.919-6.535 1.838-.714 17.054-11.741 17.871-12.966 1.327-1.94.919-2.451-5.719-6.331-4.902-2.858-7.046-4.798-8.374-7.759-2.042-4.493-1.838-4.799 7.251-14.6 6.127-6.637 6.433-7.964 3.982-15.213-1.633-4.799-1.633-4.799 1.226-8.883 5.004-6.943 5.514-8.372 5.514-16.438 0-9.291-1.225-11.231-8.374-13.069-5.412-1.429-4.901-.204-5.412-13.273-.102-3.165-.306-6.228-.408-6.943 0-.714-1.634-2.042-3.575-2.756l-3.37-1.43-.714-10.414c-.715-8.781-1.226-11.129-3.677-15.213-1.838-3.165-3.268-7.657-4.085-12.66-1.021-6.943-.919-7.964.919-11.538 1.839-3.573 6.128-10.108 7.149-13.068 1.021-2.961.715-4.493-2.553-13.784l-3.779-10.414-3.676.715c-7.251 1.327-7.455 1.225-11.948-5.105-2.451-3.37-4.391-6.433-4.494-6.841 0-.409 2.758-2.655 6.128-5.105 6.433-4.697 8.782-8.577 9.803-16.54.613-3.88.205-4.697-3.574-9.291-2.246-2.859-4.187-5.616-4.187-6.126 0-.613 2.349-3.472 5.208-6.433l5.209-5.411 1.633 2.246c3.473 4.901 5.311 6.126 9.191 5.82l3.779-.306.306-6.331c.307-6.024.204-6.432-4.697-12.762-2.655-3.574-5.209-7.249-5.617-8.27-.715-1.94 1.123-17.051 2.247-18.276.306-.409 8.476-1.43 17.973-2.348 24.918-2.349 26.041-2.553 26.756-4.289.306-.919-.613-3.982-2.043-7.045l-2.655-5.411 4.289-6.33c2.349-3.574 6.638-9.087 9.6-12.252 4.595-4.901 7.046-6.432 17.769-11.231 8.884-3.982 12.765-6.228 13.48-7.964 1.021-2.042 9.395-7.249 11.846-7.249.51 0 1.429 1.327 2.144 2.961 2.247 5.513 2.962 5.513 14.195.102l10.417-5.105-.307-3.778c-.306-3.471-.102-3.777 3.268-4.696 5.923-1.532 6.434-2.553 5.004-9.598l-1.225-6.126 5.004-7.963c2.757-4.391 5.922-8.577 7.046-9.292 2.451-1.837 6.74-1.837 8.986-.204 1.532 1.225 1.328 1.736-2.45 6.126-5.821 6.841-5.004 8.372 4.084 7.454 6.74-.715 7.047-.613 7.66 1.633.306 1.327.612 3.369.612 4.595 0 1.837 1.736 3.471 3.677 3.471.204 0 2.655-2.144 5.514-4.594l5.208-4.595h18.382l6.638 5.309c3.779 2.961 6.944 6.433 7.251 7.862.408 1.429.714 7.249.817 12.865v10.21l-6.74 10.21c-3.677 5.615-9.089 14.498-12.051 19.705-2.961 5.309-7.352 12.864-9.905 16.846-4.392 7.147-5.413 10.21-3.575 11.333.613.307 3.575.307 6.842-.102 5.515-.612 6.332-1.123 14.604-8.678 4.799-4.39 9.089-7.964 9.497-7.964.817 0 1.123.817 3.472 11.537 1.634 7.045 2.247 8.373 5.719 11.129 2.247 1.634 7.046 7.76 10.927 13.477 10.723 16.03 10.416 13.886 3.166 22.054-6.945 7.862-7.659 9.597-8.681 20.624-.919 9.7-1.429 10.517-6.433 10.108-3.677-.204-4.289.204-11.234 7.453M636.317 775.552h-.204c-.511.306-1.021 2.144-1.021 3.879 0 2.042-.919 4.084-2.553 5.82l-2.655 2.859 2.144 3.573c2.553 4.391 2.043 4.799-7.25 7.249l-6.74 1.736-2.247 7.862-2.247 7.759 3.472 5.105c3.881 5.412 3.881 5.922.205 14.294l-1.634 3.982 2.246-.51c1.328-.306 4.596-1.225 7.353-1.94 3.881-1.123 4.902-1.021 5.923 0s1.021 1.94-.817 5.207c-1.327 2.144-2.349 4.697-2.349 5.411 0 .715 2.962 4.595 6.434 8.883 1.634 2.042 2.961 3.471 4.085 5.105 4.595-1.838 9.395-2.757 14.399-3.573 8.17-1.328 14.195-2.961 21.956-6.229l10.723-4.594 5.616 6.33c3.064 3.472 7.251 8.27 9.396 10.517l3.778 4.186 5.208-5.207 5.208-5.412 9.191-.714c10.621-.817 15.216-3.37 15.216-8.475 0-4.901-3.37-31.242-4.084-32.161-.409-.409-3.677.612-7.149 2.45-3.472 1.736-6.74 2.859-7.25 2.45-.511-.51-1.532-4.594-2.451-9.086-.817-4.391-1.941-8.373-2.349-8.781-.409-.408-4.596-.102-9.293.51-7.659.919-8.681.715-9.906-.816-.817-1.226-3.881-2.042-8.374-2.757l-7.148-1.021-3.575-5.922c-1.838-3.165-4.799-6.636-6.638-7.862-3.472-2.45-31.555-10.516-34.619-10.107z"/><path d="M581.785 845.286c-.307-.511-.307-2.553.102-4.595.817-4.39-.102-5.717-8.272-10.924-4.8-3.165-6.944-3.88-10.008-3.676-2.655.204-4.187-.204-4.697-1.225-.511-.817-1.43-7.76-2.145-15.519l-1.225-13.988 5.004-10.006 4.901-10.006 6.128-1.531 6.127-1.532-.204-6.126c-.511-10.006-1.328-11.945-5.923-13.171-3.881-1.123-4.085-1.327-4.392-5.717-.204-3.676.409-5.718 3.166-10.21 1.838-3.063 3.779-5.514 4.289-5.309.613.102 1.634 2.042 2.451 4.288 1.43 4.39.817 4.084 14.91 7.555 3.37.817 10.212 1.736 15.114 2.144 8.476.613 9.293.511 13.48-1.94 2.451-1.429 4.697-2.654 5.004-2.654.306 0 0 1.633-.511 3.675-.919 3.165-.511 5.207 3.166 15.417 5.106 14.499 5.31 18.378.817 23.381-3.166 3.676-3.268 3.778-1.532 6.739 1.021 1.736 1.532 3.369 1.327 3.778-.306.408-3.063 1.327-6.127 2.042-3.166.714-6.229 1.837-6.944 2.552-.715.715-2.451 5.003-3.676 9.598l-2.451 8.372 3.676 5.105 3.676 5.105-2.042 5.207c-1.123 2.859-1.94 5.922-1.736 6.739.613 3.777-29.309 9.903-31.453 6.432zM720.669 809.449l-1.531-8.373h-9.702c-5.923 0-10.314-.51-11.233-1.225-.817-.612-4.391-1.531-7.864-1.94-7.046-.816-7.046-.816-11.437-7.759-4.187-6.739-8.578-9.087-25.53-13.58-8.17-2.144-15.319-4.186-16.136-4.594-.817-.408-3.267-5.82-5.412-11.946-3.881-10.516-3.983-11.333-2.859-16.54 1.021-4.288 2.553-6.943 7.965-13.375 6.332-7.657 6.944-8.066 10.927-8.168 2.349 0 4.8-.613 5.412-1.429.613-.715 3.166-6.739 5.719-13.375 2.451-6.637 4.8-12.252 5.004-12.559.204-.204 4.596-.102 9.804.307 8.884.714 9.395.918 10.825 3.675l1.532 2.961 8.373-.715c8.17-.612 8.579-.51 15.727 3.063 4.085 2.042 8.068 3.778 8.782 3.778.817 0 4.596-2.042 8.477-4.594 5.412-3.472 7.352-4.289 8.782-3.472 1.021.511 1.838 1.43 1.838 1.94 0 .613 1.124 1.429 2.451 1.94 1.532.613 3.37 2.757 4.596 5.718l2.144 4.798-2.042 2.859c-1.941 2.757-2.043 3.165-.613 5.922 1.736 3.267 2.655 3.471 18.382 4.901 8.067.612 8.169.714 12.254 5.309 8.068 8.985 8.579 9.393 12.357 9.393 2.962 0 3.778.408 4.595 2.553 1.532 3.981 1.43 4.084-3.982 7.555-5.208 3.369-6.23 5.513-6.23 12.967 0 3.063.307 3.471 4.392 4.492 10.007 2.757 12.458 3.778 12.765 5.207.204.919-1.838 4.493-4.392 7.964-3.982 5.411-4.697 6.943-4.186 9.597 1.021 5.922-.817 6.943-14.91 8.066-11.336.919-13.072 1.327-18.28 4.39-3.37 1.94-9.089 3.982-13.582 4.901-4.187.919-10.416 3.063-13.786 4.697-3.37 1.736-6.536 3.165-7.047 3.165-.51 0-1.532-3.778-2.349-8.474zM801.447 954.124c-1.123-1.225-.919-1.939.919-3.879 2.86-3.063 2.758-4.084-.919-9.904-1.634-2.757-4.084-7.658-5.514-10.925-2.86-6.738-2.451-7.351 4.697-7.351 5.719 0 7.762-1.736 8.579-7.249.408-2.144 1.531-4.697 2.553-5.718 1.94-1.633 2.144-1.531 5.514 1.634 3.166 3.063 4.289 3.471 12.765 4.39 17.157 1.94 26.348-2.348 34.415-16.029 1.94-3.37 5.106-7.556 7.047-9.394 2.144-1.939 3.472-4.084 3.472-5.717 0-3.267 1.327-4.186 8.169-6.126 17.974-5.105 17.565-4.901 17.055-6.943-.919-3.676 4.595-2.246 16.135 4.084 9.803 5.309 11.335 5.922 13.99 5.003 2.145-.817 3.37-.715 4.392.204 1.327 1.123 1.225 1.532-.817 3.471-3.575 3.37-4.596 11.946-1.736 15.826 1.123 1.634 2.042 3.369 2.042 3.88 0 .51-3.166 5.411-7.149 11.027-3.88 5.513-7.148 10.312-7.148 10.72 0 .306 1.838 5.207 4.085 10.925 2.247 5.717 4.085 10.822 4.085 11.435 0 .613-2.247 2.246-5.106 3.676-4.902 2.45-5.719 2.552-24.918 2.552h-19.811l-1.226-5.207c-.817-3.267-2.042-5.616-3.472-6.432-1.123-.715-8.578-2.349-16.442-3.676l-14.297-2.246-19.709 9.801c-10.825 5.412-19.811 9.802-20.016 9.802-.204 0-.919-.715-1.634-1.634zM499.271 792.704c-10.927-1.225-15.829-1.327-18.893-.51-3.063.817-6.842.613-15.522-.715-6.23-.919-11.744-2.042-12.153-2.45-.306-.409.613-2.348 2.145-4.391 1.532-1.939 2.553-4.186 2.247-4.9-.307-.715-3.575-2.144-7.251-3.165-3.676-.919-6.74-2.145-6.74-2.451 0-1.633 6.127-10.006 9.599-13.375 3.575-3.471 3.677-3.676 3.677-11.231v-7.862l3.574-1.633c2.042-1.021 4.698-1.736 6.025-1.736 4.187 0 11.948 3.267 13.582 5.718 1.941 3.063 3.064 3.063 6.945 0 4.289-3.472 6.944-2.042 6.025 3.267-.919 5.615 5.412 18.276 9.599 19.092 5.31 1.124 11.336 4.493 13.072 7.352 1.021 1.531 3.778 4.696 6.127 6.943 5.923 5.513 6.433 7.861 2.553 10.618-4.289 3.063-7.353 3.165-24.611 1.429z"/><path d="M480.787 741.246c-1.43-2.144-11.438-6.024-15.727-6.024-1.123 0-3.88.919-6.229 2.144l-4.085 2.247-3.983-2.757c-2.247-1.43-4.595-2.655-5.208-2.655-1.021 0-4.085-1.327-16.442-6.84-2.144-.919-3.37-2.145-3.37-3.37 0-2.961-1.838-3.471-6.025-1.633l-3.88 1.735-6.74-3.675c-7.353-4.084-7.353-4.084-5.413-12.252l1.124-5.105 5.616-.511c5.515-.51 5.617-.612 8.068-5.411 2.451-5.105 3.166-5.411 9.293-3.982 5.004 1.225 6.025.613 6.74-4.084.715-4.288.204-3.88 11.437-8.576 2.86-1.226 3.268-1.94 3.064-4.799-.102-1.94.613-4.493 1.532-5.922 2.247-3.165 2.144-5.207-.306-9.904-2.86-5.309-2.656-8.168.817-9.597 2.655-1.225 10.11-8.474 16.952-16.642 1.94-2.349 3.778-5.922 4.187-8.168.817-4.799 3.268-9.904 5.208-11.027.817-.511 1.429-1.634 1.429-2.655s.613-2.654 1.43-3.778c1.43-1.939 1.532-1.837 2.553 1.124 1.838 5.105 2.655 6.023 7.557 8.678 3.881 2.042 5.719 4.186 10.519 12.15l5.821 9.495-2.247 9.598-2.145 9.495 2.247 4.492c2.042 4.391 2.042 4.799.613 10.823l-1.634 6.228 3.063 2.553c1.634 1.327 3.37 2.552 3.677 2.552.408 0 2.042 1.123 3.574 2.553 2.349 2.246 2.757 3.369 2.757 8.474.102 3.165.715 6.943 1.532 8.372.817 1.327 1.532 4.901 1.532 7.76v5.207l-3.778.613c-5.924 1.021-10.008.816-11.234-.511-1.838-1.736-8.476 13.375-8.476 19.195 0 2.45-.204 4.492-.511 4.492-.306 0-1.94-.714-3.676-1.633-2.859-1.43-3.166-1.43-6.433 1.123l-3.37 2.552-1.43-2.144z"/><path d="M539.404 792.092c-8.68-2.961-9.599-3.472-10.62-6.535-.511-1.837-2.86-4.798-5.004-6.534-2.247-1.736-4.596-4.39-5.31-5.82-1.736-3.573-8.476-8.066-13.276-8.78-3.472-.613-4.085-1.226-6.944-6.841-3.575-7.351-3.779-8.985-1.022-12.456 1.43-1.838 2.043-4.186 2.043-7.862 0-3.471.817-6.841 2.553-10.21 2.757-5.411 3.574-5.718 15.829-6.432l4.595-.204.306-5.412c.307-5.003.511-5.309 2.962-5.309 1.532 0 4.595-.919 6.842-1.94 2.349-1.123 8.272-2.961 13.276-4.186 10.212-2.45 19.096-7.76 21.139-12.558.613-1.532 1.634-2.757 2.247-2.757.612 0 5.514 2.451 10.927 5.514 9.803 5.615 9.905 5.717 15.624 15.11 3.166 5.207 6.638 11.538 7.761 14.192 2.043 4.595 2.349 4.799 11.54 7.964 5.208 1.838 9.906 3.676 10.416 4.186.409.408-1.634 2.451-4.595 4.39-5.515 3.472-5.515 3.574-12.663 2.553-9.6-1.225-17.565-2.655-22.16-3.982-3.37-.919-3.983-1.634-6.026-7.147-1.531-4.084-2.757-6.024-3.982-6.024-1.022 0-3.677 3.063-6.74 7.862-4.698 7.453-5.004 8.372-5.004 14.906 0 7.249.919 8.781 5.208 8.883 3.064 0 4.289 1.838 5.004 7.76l.715 5.105-5.719 1.327-5.821 1.225-5.821 11.742c-3.676 7.453-6.331 11.537-7.353 11.537-.817-.102-5.821-1.532-10.927-3.267z"/><path d="M617.629 729.811c-9.089-3.37-12.152-5.207-12.152-7.351 0-.613-3.166-6.433-7.047-12.865l-6.944-11.64-11.539-6.636c-10.621-6.024-11.642-6.432-12.663-4.697-4.902 8.271-11.438 12.457-23.999 15.417-5.412 1.328-11.233 3.166-12.867 3.982-5.311 2.757-7.353 2.144-9.702-2.96-1.225-2.757-2.042-6.637-2.042-10.006v-5.514l-5.617-3.777c-6.127-4.084-6.331-4.697-4.493-12.559 1.021-4.39.919-5.411-1.021-8.882l-2.247-3.982 2.144-9.598 2.247-9.597-6.433-10.823c-5.617-9.597-6.945-11.026-10.927-12.864-3.37-1.43-4.902-2.859-6.026-5.718-2.45-5.82-1.94-9.904 3.064-22.564 4.8-12.048 5.821-13.477 15.42-20.726 3.166-2.451 3.677-3.472 3.677-6.943 0-3.471.715-4.901 4.493-8.883 4.289-4.492 4.698-4.696 7.046-3.369 2.451 1.225 3.064 1.021 10.008-3.88 4.085-2.859 8.476-5.207 9.804-5.207 2.247 0 2.349.408 2.349 6.432 0 5.31-.613 7.556-3.166 12.252l-3.166 5.82 3.677 4.901 3.574 4.901 11.029 1.327c6.842.817 12.969 2.144 16.237 3.573 5.106 2.349 5.208 2.451 5.106 6.739-.102 4.288.102 4.595 4.902 7.351l5.004 2.961 7.455-2.246 7.557-2.246 4.902 4.084c4.391 3.675 4.901 4.492 5.412 9.597.306 3.472 1.94 8.372 4.493 13.375l3.983 7.964h6.536c6.331 0 6.74.102 13.48 5.513 6.331 5.003 7.659 5.616 15.931 7.045l8.986 1.634 7.149 7.759 7.148 7.658h19.71l5.821-4.799 5.821-4.798 5.82 6.33c5.515 5.922 6.128 6.33 10.417 6.33 3.268 0 6.025.919 10.62 3.573 3.37 2.042 6.843 4.085 7.66 4.493.919.51 1.429 1.838 1.225 3.471-.613 5.003 3.37 11.64 8.885 15.111 2.859 1.736 4.901 3.676 4.595 4.186-1.225 1.838-14.603 10.006-16.544 10.006-1.021 0-2.757-.919-3.778-2.042-1.021-1.123-2.451-2.042-3.166-2.042-.715 0-4.902 2.144-9.191 4.799l-7.761 4.798-7.557-3.879c-7.455-3.88-7.761-3.88-15.216-3.268-7.557.715-7.659.715-8.782-1.939-.715-1.43-2.247-2.859-3.37-3.064-4.29-.816-20.731-1.429-21.752-.714-.613.408-2.962 5.615-5.208 11.537-5.719 15.213-5.719 15.213-10.315 15.213-3.676 0-4.391.511-10.314 7.555-3.574 4.289-7.251 7.658-8.067 7.658-.817 0-5.515-1.532-10.315-3.267z"/><path d="M738.949 660.178c-5.821-3.471-8.986-4.594-12.05-4.594-3.676 0-4.698-.613-9.395-5.718-7.659-8.27-7.659-8.27-14.501-2.45l-5.923 5.105h-17.667l-6.843-7.555-6.842-7.556-9.293-1.736c-8.578-1.735-9.905-2.348-16.237-7.351-6.74-5.207-7.251-5.411-13.48-5.513h-6.434l-3.88-8.372c-2.451-5.514-3.779-9.904-3.779-12.661 0-3.879-.51-4.696-5.31-8.984-2.962-2.553-6.127-4.595-7.046-4.595-1.022 0-4.596.817-8.17 1.94l-6.332 2.042-4.289-2.553c-3.88-2.246-4.289-2.858-4.289-6.738 0-6.535-5.208-9.087-22.569-11.129-10.416-1.225-10.518-1.225-12.969-4.901-3.166-4.594-3.166-5.003 0-10.516 2.042-3.676 2.553-5.82 2.553-12.252v-7.862l3.064-.612c1.634-.409 5.31-2.757 8.067-5.208 4.698-4.288 5.821-4.696 14.093-6.126 12.255-2.144 11.335-1.735 19.403-9.393 5.31-5.105 7.659-8.168 8.578-11.333 1.124-3.778 1.124-4.594-.204-5.309-4.493-2.757-4.493-2.553-.613-8.27 2.145-2.961 3.779-6.024 3.779-6.637 0-.612-1.226-3.573-2.655-6.432-2.656-5.309-2.656-8.168-.103-8.168.715 0 5.821 6.841 11.336 15.315 7.148 10.823 10.621 15.315 11.948 15.315 1.226 0 3.166-1.838 5.106-4.901 3.983-6.33 4.494-8.678 2.451-11.843-1.327-2.042-1.532-3.778-.919-8.373.715-5.819.715-5.819-3.064-8.984l-3.88-3.165 2.451-3.063c1.225-1.634 4.084-6.637 6.127-11.129 3.574-7.862 3.676-8.27 2.144-10.925-2.757-4.697-1.225-7.249 8.272-13.171 7.659-4.799 9.395-6.534 16.34-15.928 5.004-6.84 8.476-10.618 9.701-10.618 1.941 0 13.276 3.88 14.604 5.105.51.409.51 3.063.102 6.024-.613 4.492-1.736 6.534-7.659 13.988-3.881 4.9-7.047 9.699-7.047 10.924 0 1.123.715 4.799 1.634 8.066 1.634 5.82 1.634 6.024-1.021 13.988-1.43 4.492-2.655 8.985-2.655 10.006 0 1.021-1.634 6.738-3.574 12.558-1.941 5.82-3.575 11.537-3.575 12.66 0 1.124 1.226 4.901 2.655 8.271l2.554 6.228-4.187 7.861c-2.349 4.289-4.596 7.862-5.107 7.862-.51 0-3.676 3.369-7.148 7.658-6.025 7.453-6.229 7.657-10.825 7.657-2.451 0-7.761-1.021-11.54-2.144-14.297-4.39-16.85-1.123-6.944 8.985 7.047 7.249 14.603 11.435 20.424 11.537 6.128 0 17.974-6.024 22.467-11.639 2.145-2.655 6.638-6.637 10.008-8.883l6.025-4.084V518.26c0-13.069.511-14.294 6.842-15.418 5.821-1.123 8.578 1.021 10.314 7.76 3.37 13.681 3.166 13.273 6.128 13.273 1.532 0 4.289-1.021 6.229-2.144l3.37-2.042-.715-7.351c-.408-4.084-1.123-8.372-1.531-9.496-.511-1.225-3.983-4.39-7.762-7.147-5.821-4.186-8.067-5.105-14.092-6.023-6.332-.919-7.251-1.328-7.864-3.574-1.736-6.432-1.021-9.699 4.187-17.867 2.86-4.493 5.106-8.577 5.106-9.189 0-.613-1.123-5.616-2.451-11.231-2.859-11.436-2.553-12.763 3.677-18.481 5.208-4.9 12.561-9.801 12.867-8.78.204.612-1.328 5.309-3.268 10.72-2.042 5.31-3.676 10.21-3.676 10.823 0 2.246 19.505 13.375 23.59 13.375 2.349 0 4.902-2.655 5.004-5.003 0-.715-2.962-4.696-6.638-8.78-3.677-4.084-6.638-8.168-6.638-8.985 0-2.757 2.042-3.165 4.493-.817 2.553 2.348 4.8 2.655 7.864 1.021 2.655-1.327 2.451-3.267-.715-8.679-2.145-3.675-2.451-4.798-1.43-6.126 3.064-3.573 7.353-.306 4.8 3.778-1.021 1.634-.919 2.246.306 3.267.919.613 3.676 3.37 6.127 6.126l4.392 4.901-4.698 4.799c-2.655 2.654-4.8 5.309-4.8 5.922 0 .714 2.043 3.471 4.596 6.33 4.902 5.309 5.31 7.249 3.472 13.579-.919 2.961-2.859 5.207-8.17 9.291-3.778 2.961-7.148 5.922-7.455 6.637-.51 1.123 4.085 8.474 9.804 15.621 2.757 3.471 2.859 3.471 7.148 2.348 2.451-.714 4.698-.919 5.107-.51.408.408 1.94 4.084 3.37 8.168l2.553 7.351-5.106 10.108-5.107 10.006 1.124 8.066c.817 5.513 2.144 9.801 4.289 13.681 2.757 4.901 3.166 6.841 3.574 15.315.511 10.516 1.328 13.273 4.085 13.273 3.472 0 4.289 2.144 4.289 11.333 0 9.904.715 11.027 7.659 12.661 5.106 1.225 5.617 2.246 5.617 10.107 0 7.045-.204 7.658-4.187 13.273l-4.289 5.922 1.736 5.309c.919 2.961 1.634 6.024 1.634 6.841 0 1.838-10.008 13.171-11.54 13.171-.715 0-4.8-2.144-9.089-4.595zM394.494 817.413c-.306-.817-.102-2.961.511-4.799 1.43-4.084.306-5.616-5.31-6.535-7.761-1.225-8.17-1.837-5.515-7.351 1.328-2.654 3.472-7.657 4.8-11.231 2.961-8.168 9.906-15.11 14.093-14.089 6.944 1.735 7.659 1.429 11.131-5.003 5.412-10.006 4.187-13.682-3.881-11.844-3.472.715-6.433.511-13.071-.919-4.698-1.021-8.783-2.246-9.191-2.757-.409-.51-1.634-2.858-2.655-5.309l-1.941-4.39 2.553-1.94c4.392-3.471 6.638-3.471 10.825-.204 3.268 2.654 5.106 3.165 12.153 3.778 9.599.918 9.395 1.021 12.663-8.883 1.225-3.778 2.553-6.841 2.859-6.841 2.145 0 23.59 9.393 26.143 11.435 2.451 1.94 3.064 3.268 3.472 8.066.409 5.718.409 5.718-4.697 11.435-5.209 5.718-9.395 12.559-9.395 15.315 0 .919 2.45 2.144 6.637 3.268 3.677 1.021 6.638 2.042 6.638 2.246 0 .306-1.021 2.246-2.144 4.39-2.655 4.697-3.677 4.697-17.055-.204-9.497-3.471-11.846-3.165-15.011 1.531-1.532 2.451-1.532 3.063.919 10.517 2.655 8.474 2.144 10.005-2.349 7.555-2.962-1.634-10.927-1.327-12.765.511-.817.816-1.838 3.573-2.247 6.126-.306 2.552-1.327 5.309-2.144 6.126-1.941 1.939-5.311 1.939-6.026 0z"/><path d="M386.631 846.715c-4.902-3.063-6.229-3.471-7.659-2.45-5.31 3.778-6.127 3.778-10.314-.306-3.268-3.063-4.187-4.901-4.698-8.985-1.225-8.27-6.74-11.844-14.195-8.985-2.859 1.123-2.655 1.225-10.11-7.556l-2.553-3.063-8.476 1.736c-4.697 1.021-9.089 1.838-9.803 1.838-.715 0-1.737-1.838-2.349-3.982-.511-2.246-1.838-5.003-2.86-6.33-1.634-1.94-2.144-2.042-4.084-1.021-1.226.612-2.656.919-3.166.612-.511-.306-1.634-4.798-2.655-10.005-1.022-5.207-2.247-10.21-2.656-11.129-.51-1.021-2.961-2.655-5.514-3.778-4.493-2.042-4.596-2.144-4.596-7.045 0-6.636-1.021-7.453-8.68-6.636l-6.331.51-.613-3.267c-1.021-4.799-1.123-4.697 3.37-6.024 2.451-.715 5.004-2.45 6.434-4.39 1.429-1.94 5.31-4.493 10.416-6.943 7.046-3.369 9.293-5.003 16.646-13.069 4.595-5.105 8.374-10.108 8.374-11.129 0-1.123 1.429.204 3.574 3.472 3.268 4.798 3.574 5.921 3.676 12.762 0 6.432.613 8.985 4.902 19.603 4.493 11.027 4.8 12.457 3.983 16.745-1.226 6.636-.613 7.657 4.289 7.045 2.246-.307 4.289-.205 4.595.306.817 1.225-1.327 6.228-3.268 7.657-1.531 1.124-1.429 1.532.511 4.697 1.94 3.267 2.042 3.778.715 6.432-2.553 4.799-1.94 6.331 2.349 7.045 5.821 1.021 9.191.817 11.437-.612 1.736-1.021 2.553-.715 6.025 2.756 4.8 4.595 6.332 4.391 9.293-1.429 1.124-2.246 2.86-4.084 3.779-4.084 4.085 0 14.603 2.45 14.603 3.471 0 .613-.715 3.268-1.736 5.922l-1.736 4.799 5.719 8.474c8.68 13.171 8.476 12.354 4.8 16.54-1.737 2.042-3.677 3.676-4.29 3.574-.714 0-3.88-1.634-7.148-3.778z"/><path d="M363.143 809.551c-3.37-2.757-4.187-3.063-6.433-2.042-2.656 1.225-9.804 1.634-10.825.613-.307-.307-.102-2.145.51-4.084.715-2.247.715-4.186.102-5.718-.714-1.634-.51-3.778.817-7.76 2.656-8.168 2.656-8.372-3.165-8.372h-5.004l.51-5.411c.511-4.799 0-6.637-4.187-16.438-3.778-8.985-4.697-12.15-4.697-17.051 0-5.513.408-6.739 4.799-13.273 3.37-5.105 5.004-8.679 5.413-11.946l.51-4.798 7.66-2.349c9.19-2.859 10.007-3.471 8.271-6.738-2.042-3.676-1.123-4.697 5.719-7.352l6.332-2.348 2.553 3.369c2.042 2.757 3.472 3.472 7.659 4.084 5.412.715 7.659 2.757 11.335 10.108.817 1.634 2.655 3.37 4.085 3.88 1.43.613 3.472 1.838 4.596 2.859 3.88 3.471 15.828 9.495 17.871 8.985 2.553-.715 2.553.919.102 7.964l-1.838 5.105-5.821.306c-6.127.306-10.314-1.43-14.399-5.922-1.022-1.123-2.451-2.042-3.268-2.042-2.553 0-12.561 7.351-12.561 9.189 0 3.165 5.31 14.192 7.046 14.703 6.945 2.042 16.748 3.675 20.731 3.471 2.655-.102 5.208.102 5.514.408.409.409-.51 2.757-2.042 5.31-2.553 4.39-2.757 4.492-5.719 3.471-1.736-.613-4.085-.817-5.412-.511-2.655.715-12.97 10.21-12.97 11.946 0 .715-2.042 6.228-4.697 12.252-3.677 8.781-5.106 11.129-6.842 11.435-1.328.102-3.064 1.736-4.289 4.084-1.124 2.144-2.451 3.88-3.064 3.778-.511 0-2.757-1.429-4.902-3.165zM217.62 776.368c-.51-1.021-1.327-3.471-1.736-5.411-.408-2.042-2.348-7.862-4.391-13.069-3.166-8.27-3.983-9.597-6.433-10.108-1.737-.306-3.473-1.837-4.902-4.492-1.634-2.961-3.064-4.084-5.515-4.595l-3.37-.612.102-8.883c0-5.717-.408-9.597-1.225-10.516-.715-.817-4.8-2.348-9.089-3.472-7.046-1.735-7.965-2.246-9.395-5.207-1.226-2.654-1.328-3.88-.409-5.717.613-1.226 1.328-4.084 1.43-6.331.306-3.981.511-4.186 7.966-7.963 4.186-2.042 8.169-3.778 8.782-3.778.511 0 2.859 1.838 5.106 4.186 2.145 2.246 7.149 6.943 10.927 10.312 6.332 5.616 7.761 6.433 15.931 8.577 6.944 1.837 9.906 3.267 12.969 5.921 2.145 2.042 5.923 4.391 8.476 5.207 2.656.919 5.311 2.043 6.128 2.349 3.982 2.042 19.913 36.96 17.462 38.491-1.327.817-22.058 4.289-30.84 5.208-7.557.714-9.702 2.246-11.54 7.861-1.225 3.778-4.902 4.901-6.434 2.042zM267.558 752.375c-2.043-6.637-9.804-22.564-12.663-26.138-.817-1.021-.409-1.531 1.327-1.94 2.145-.612 2.247-.919 1.532-7.759-.817-8.679-.613-8.883 9.293-8.883 6.842 0 7.455.204 12.663 4.084 3.064 2.246 5.719 4.084 5.923 4.084.204 0 2.757-2.042 5.719-4.595l5.412-4.594 2.247 3.063c2.553 3.573 4.187 3.778 6.74 1.021 2.349-2.655 3.779-2.655 6.842.306 1.634 1.532 2.962 4.391 3.881 8.577l1.327 6.33-7.557 8.474c-8.986 10.006-7.965 9.189-16.237 12.763-4.085 1.736-8.272 4.492-10.825 7.147-2.655 2.655-5.208 4.39-6.638 4.39-1.327 0-3.37.204-4.493.511-1.838.51-2.451-.307-4.493-6.841z"/><path d="M325.665 725.931c-2.349-3.369-4.596-5.82-5.106-5.514-.817.511-3.064-5.513-3.064-8.372 0-1.327-6.434-6.432-8.17-6.432-.715 0-2.451.919-3.88 2.042l-2.758 2.144-2.246-2.859c-1.328-1.633-2.349-3.369-2.349-3.982 0-.612-1.123-2.144-2.349-3.369-1.327-1.225-2.961-4.084-3.676-6.33-1.021-3.574-1.532-3.982-4.494-3.982-3.778-.102-4.799-.613-7.148-4.288-1.43-2.348-2.553-2.859-7.046-3.063-3.779-.204-5.515-.817-5.719-1.838-.204-1.123.613-1.634 2.553-1.634 1.634 0 5.106-.102 7.761-.204l5.004-.204-.408-4.288-.307-4.288 5.617-1.838c3.063-1.021 9.803-3.165 15.012-4.799l9.293-2.961 3.676 2.451c2.451 1.735 4.391 2.246 6.127 1.837 2.655-.612 2.86-.204 5.311 13.273.817 4.493 4.084 12.457 5.412 13.273.511.307 4.902-.816 9.804-2.45 4.901-1.736 9.395-2.757 9.803-2.553 1.838 1.124.817 4.595-2.144 7.964-3.779 4.289-3.779 5.412-.511 6.228 3.268.817 5.923 5.718 3.574 6.535-.817.306-4.289 1.531-7.659 2.654l-6.127 2.144-.511 4.697c-.408 3.063-1.838 6.739-4.391 10.516-2.042 3.063-3.983 5.718-4.289 5.718-.204 0-2.349-2.757-4.595-6.228z"/><path d="M247.746 719.396c-2.757-.816-6.842-2.654-9.089-4.186l-4.187-2.654 5.923-5.309 6.026-5.31-1.328-6.126c-.715-3.369-1.123-7.861-.919-10.108l.306-4.084 5.515-.306c5.004-.306 5.514-.612 6.536-3.369.612-1.634 1.634-2.961 2.246-2.961 2.349 0 5.515 3.165 5.821 5.82.204 1.531 1.021 2.859 1.838 2.961 11.336 1.531 11.234 1.531 12.766 4.492 1.327 2.45 2.246 3.063 5.208 3.063 3.166 0 3.778.408 5.208 3.778.817 2.144 2.553 4.901 3.676 6.228l2.247 2.348-4.8 4.595-4.902 4.594-5.412-4.186c-5.106-3.778-5.923-4.084-12.05-4.084-3.575 0-8.272.51-10.519 1.123l-3.88 1.021.612 7.045c.817 7.964 1.124 7.76-6.842 5.615zM395.618 712.964c-.613-.408-2.655-3.267-4.494-6.33-1.838-3.165-3.472-5.718-3.574-5.922-.204-.102-2.757-.715-5.821-1.225-4.289-.817-6.127-1.838-8.374-4.39-2.553-2.961-6.229-9.904-5.616-10.517.204-.102 2.042-.919 4.187-1.837 2.042-.817 3.778-2.145 3.778-2.961 0-.715 1.838-5.207 4.085-9.802 2.553-5.309 4.085-9.904 4.085-12.354 0-6.126 1.123-10.006 3.574-12.558 1.225-1.226 2.962-3.676 3.779-5.31 1.429-2.654 1.429-3.471.102-7.147-1.328-3.981-1.328-4.186.919-6.023 3.88-3.063 10.722-9.598 11.539-10.823.307-.613-1.94-3.778-5.106-7.045-5.616-6.024-5.718-6.126-5.412-11.537.306-5.207.511-5.411 3.268-5.82 1.634-.102 4.493 0 6.433.306 2.86.613 3.881 1.532 5.719 5.514 2.247 4.594 2.451 4.799 10.723 7.249l8.374 2.45 10.212-1.837c11.335-2.145 12.765-1.94 26.858 3.165 4.289 1.531 7.863 3.471 7.863 4.186 0 .714-.919 3.063-2.042 5.105-1.124 2.144-2.043 5.003-2.043 6.534 0 4.697-14.807 21.339-20.935 23.381l-3.778 1.225.511 4.799c.306 2.654 1.327 6.432 2.348 8.474 1.634 3.472 1.634 3.88.103 6.33-.92 1.43-1.737 3.88-1.737 5.616 0 2.757-.51 3.165-5.82 5.105-6.536 2.45-8.476 4.288-8.476 8.066 0 2.45-.103 2.45-6.128 1.838l-6.025-.715-2.553 5.105-2.655 5.105-5.821.306-5.923.306-1.532 7.045c-1.532 6.943-2.553 8.475-4.595 6.943z"/><path d="M222.726 706.838c-9.293-2.654-9.905-3.063-19.096-11.435-5.208-4.799-9.804-9.393-10.11-10.108-.409-.817.102-1.94.919-2.552 1.327-1.021 1.532-3.268 1.327-13.375l-.306-12.15 2.757-1.021c3.983-1.43 15.216 6.024 19.812 13.273 4.187 6.432 4.697 6.84 7.148 5.003 1.634-1.124 2.655-1.021 7.557 1.123 8.476 3.777 8.885 4.492 9.498 16.029l.408 9.904-4.698 4.084c-2.553 2.246-4.901 3.982-5.208 3.982-.306 0-4.799-1.327-10.008-2.757zM353.033 695.097c1.736-1.838 2.247-3.676 2.247-7.658 0-6.432-.102-6.432-12.05-2.552-8.374 2.756-8.579 2.756-10.008.816-1.941-2.654-1.839-4.594.715-11.231 1.429-3.981 2.655-5.615 3.982-5.615 2.553 0 3.779-1.838 4.596-7.147 1.021-6.228 1.429-6.637 6.025-6.637 3.88 0 4.187-.306 8.782-7.657 5.617-8.781 5.106-8.678 16.34-3.267l7.659 3.777-.307 7.147c-.204 4.493-.919 8.271-2.042 10.21-1.021 1.634-2.859 5.514-4.085 8.679-1.94 4.697-2.961 5.82-6.434 7.351-3.676 1.532-4.084 2.042-3.472 4.084 1.941 6.024 1.43 7.147-5.106 9.598-7.965 3.165-9.701 3.165-6.842.102z"/><path d="M234.981 673.656c-6.332-3.063-8.782-3.778-9.599-2.961-1.941 1.838-2.451 1.531-5.413-3.472-1.838-3.165-4.902-6.126-9.701-9.291l-7.149-4.696L207 649.05c2.144-2.349 5.412-6.024 7.352-8.168 5.209-5.718 6.434-6.126 12.357-4.186l5.004 1.633v7.147c0 6.024.511 7.862 3.166 12.661 1.736 3.063 3.472 5.819 3.983 6.023.408.307 4.084-1.123 8.067-3.063 4.085-1.939 7.557-3.471 7.761-3.471.205 0 1.328 1.838 2.451 4.084l2.145 4.084-3.064 6.126-3.063 6.126-4.902-.102c-3.472-.102-7.149-1.225-13.276-4.288zM263.269 673.962c-2.962-2.45-3.166-2.961-2.247-5.82.715-1.837.715-3.675.204-4.492-1.532-2.45-1.021-3.472 2.451-5.003 2.962-1.429 3.268-2.042 3.574-6.841.307-5.207.409-5.411 3.881-6.024 1.94-.408 6.025 0 9.293.817l5.923 1.43 1.838 5.513c.919 3.063 2.043 6.33 2.349 7.351.408 1.328-.817 2.451-5.412 4.595-5.617 2.654-5.923 3.063-5.617 6.126.306 3.777-.102 3.982-7.659 4.594-4.596.409-5.719.102-8.578-2.246zM329.341 673.758c-.306-.715-1.736-8.475-3.268-17.051-1.634-8.678-3.472-16.336-4.085-16.949-1.327-1.327-17.36-5.207-19.709-4.696-.817.102-2.757 1.225-4.289 2.348-1.634 1.225-3.064 1.94-3.268 1.736-.204-.204-.715-2.553-1.021-5.105-.511-4.186-.307-4.901 3.063-8.372 2.145-2.349 4.187-3.676 5.311-3.37.919.205 2.757.715 3.982 1.123 1.736.511 3.575-.102 6.434-2.144 2.145-1.531 3.983-3.165 3.983-3.573 0-.511-2.451-2.859-5.515-5.207-3.063-2.451-5.616-4.901-5.616-5.616-.103-.612 2.144-2.552 4.799-4.288 4.391-2.859 5.821-3.165 12.255-3.165h7.352v-6.534c0-5.514.409-6.739 2.554-8.781 1.429-1.327 2.553-3.063 2.553-3.778 0-.816 1.021-3.369 2.144-5.717 1.736-3.267 1.94-4.595 1.021-6.024-1.021-1.634-.306-2.246 6.025-5.411 3.881-1.94 7.557-3.574 8.068-3.574.511 0 1.736 1.225 2.655 2.757 1.736 2.552 1.736 3.063.102 9.393-1.327 4.901-2.757 7.76-5.514 10.516l-3.677 3.88 1.124 5.309c2.042 9.904 4.493 17.153 5.821 17.153.714 0 3.676-2.144 6.637-4.595 2.962-2.552 5.413-4.594 5.515-4.594.102 0 3.676.919 7.863 2.042 4.187 1.123 10.008 2.042 12.766 2.042 4.901.102 5.31.306 10.212 5.82l5.106 5.717-7.149 6.535-7.046 6.534 1.634 4.492c1.634 4.391 1.634 4.391-1.43 8.577-1.634 2.246-3.268 4.186-3.472 4.186-.306 0-2.655-1.123-5.412-2.553-8.885-4.492-15.625-6.738-17.055-5.513-.715.511-3.165 4.186-5.412 8.066-4.187 6.943-4.289 7.045-8.987 7.351l-4.902.306-1.327 6.331c-1.123 5.003-1.838 6.432-3.268 6.432-2.247 0-3.676 1.634-4.595 5.309-.817 3.267-2.349 4.595-2.962 2.655z"/><path d="M293.701 662.016c-.205-.51-1.532-4.39-2.758-8.78-1.429-4.901-2.961-8.066-3.982-8.27-.919-.307-4.289-1.021-7.557-1.634l-5.923-1.225.306-5.718.306-5.615 4.596-1.328c3.881-1.225 4.902-1.123 6.842.103 1.225.816 2.962 1.531 3.676 1.531 1.022 0 1.736 1.838 2.145 6.126.817 7.147 1.736 7.453 7.761 3.165l4.085-2.961 8.374 1.94c4.595 1.123 8.578 2.144 8.68 2.348.204.103 1.021 4.084 1.838 8.781 1.328 7.555 1.328 8.781 0 10.108-1.327 1.327-1.838 1.225-4.391-.715-1.634-1.123-3.574-2.246-4.391-2.45-1.225-.204-12.459 2.859-17.667 4.901-.715.306-1.634.102-1.94-.307z"/><path d="M236.819 655.788c-1.634-3.267-2.655-7.249-3.063-12.456l-.511-7.555-6.229-1.838c-6.23-1.838-10.417-5.514-9.293-8.372.306-.613 7.046-4.084 15.011-7.76 11.336-5.207 14.808-7.249 15.931-9.495 1.736-3.165 1.532-3.165 6.638-1.634 3.574 1.021 4.085.919 6.842-1.327 2.553-2.144 4.494-2.655 11.642-3.165 4.8-.307 9.599-1.123 10.825-1.94 2.042-1.225 2.757-1.021 6.944 1.225 2.553 1.429 8.272 5.513 12.765 9.087 7.966 6.228 8.068 6.534 6.332 8.474-1.736 1.838-5.31 1.94-9.906.204-.817-.306-3.574 1.736-6.229 4.595l-4.8 5.105-2.757-2.042c-2.553-1.94-2.86-1.94-9.293-.204l-6.638 1.838-.307 6.942c-.306 6.637-.408 6.943-3.267 7.964-2.86 1.021-3.064 1.43-3.064 6.432 0 4.697-.306 5.514-2.655 6.739-2.349 1.327-2.757 1.225-3.983-.306-1.634-2.349-2.349-2.246-9.906 1.327-3.472 1.634-6.944 3.063-7.455 3.063-.612 0-2.246-2.246-3.574-4.901z"/></g><defs><clipPath id="a"><path fill="#fff" d="M0 0h1685v1021H0z"/></clipPath></defs></svg>